<?xml version="1.0" encoding="UTF-8"?>
<!DOCTYPE svg PUBLIC "-//W3C//DTD SVG 1.1//EN" "http://www.w3.org/Graphics/SVG/1.1/DTD/svg11.dtd">
<!-- Creator: CorelDRAW -->
<svg xmlns="http://www.w3.org/2000/svg" xml:space="preserve" width="210mm" height="297mm" style="shape-rendering:geometricPrecision; text-rendering:geometricPrecision; image-rendering:optimizeQuality; fill-rule:evenodd; clip-rule:evenodd"
viewBox="0 0 210 297">
 <defs>
  <style type="text/css">
   <![CDATA[
    .str0 {stroke:#1F1A17;stroke-width:0.0762}
    .str1 {stroke:#C2C1C1;stroke-width:0.7056;stroke-dasharray:3 3}
    .fil4 {fill:none}
    .fil0 {fill:#DEDEDD}
    .fil1 {fill:#1F1A17;fill-rule:nonzero}
    .fil2 {fill:#605D5C;fill-rule:nonzero}
    .fil3 {fill:#C2C1C1;fill-rule:nonzero}
   ]]>
  </style>
 </defs>
 <g id="Layer_x0020_1">
  <metadata id="CorelCorpID_0Corel-Layer"/>
  <rect class="fil0 str0" x="94.3499" y="102.315" width="38.3" height="21.8935"/>
  <path class="fil1" d="M102.319 111.748l1.2115 0c0.2399,0 0.4191,0.0098 0.5369,0.0303 0.1178,0.0198 0.2229,0.0614 0.3161,0.1249 0.0931,0.0635 0.17,0.1474 0.2321,0.2533 0.0621,0.1051 0.0931,0.2236 0.0931,0.3542 0,0.1418 -0.0381,0.2723 -0.1143,0.3908 -0.0769,0.1186 -0.1806,0.2075 -0.3111,0.2667 0.1841,0.0537 0.3267,0.1454 0.4254,0.2745 0.0995,0.1298 0.1489,0.2822 0.1489,0.4572 0,0.1376 -0.0317,0.2716 -0.0959,0.4022 -0.0643,0.1298 -0.1517,0.2342 -0.2625,0.3118 -0.1108,0.0776 -0.2477,0.1256 -0.4106,0.1439 -0.1016,0.0106 -0.3479,0.0177 -0.738,0.0205l-1.0316 0 0 -3.0303zm0.6125 0.5044l0 0.7006 0.4007 0c0.2385,0 0.3866,-0.0035 0.4445,-0.0105 0.1044,-0.012 0.187,-0.048 0.2469,-0.108 0.06,-0.06 0.0897,-0.139 0.0897,-0.2371 0,-0.0938 -0.0254,-0.17 -0.077,-0.2286 -0.0522,-0.0585 -0.1291,-0.0938 -0.2307,-0.1058 -0.0606,-0.007 -0.2349,-0.0106 -0.5228,-0.0106l-0.3513 0zm0 1.2051l0 0.81 0.5658 0c0.2208,0 0.3605,-0.0057 0.4198,-0.0184 0.091,-0.0162 0.1651,-0.0571 0.2223,-0.1206 0.0571,-0.0642 0.086,-0.1503 0.086,-0.2575 0,-0.0911 -0.0225,-0.168 -0.0663,-0.2315 -0.0444,-0.0635 -0.1079,-0.11 -0.1912,-0.139 -0.0832,-0.0289 -0.2646,-0.043 -0.5426,-0.043l-0.4938 0z"/>
  <path class="fil1" d="M106.816 114.778l0 -0.3288c-0.0805,0.1171 -0.1856,0.2096 -0.3154,0.2773 -0.1305,0.067 -0.2681,0.1009 -0.4128,0.1009 -0.1474,0 -0.2794,-0.0325 -0.3965,-0.0967 -0.1171,-0.0649 -0.2018,-0.1559 -0.2547,-0.273 -0.0522,-0.1171 -0.0783,-0.2794 -0.0783,-0.4861l0 -1.3886 0.5807 0 0 1.0083c0,0.309 0.0105,0.4981 0.0324,0.5679 0.0212,0.0692 0.06,0.1242 0.1164,0.1651 0.0565,0.041 0.1284,0.0607 0.2152,0.0607 0.0995,0 0.1884,-0.0268 0.2667,-0.0811 0.0783,-0.0551 0.132,-0.1221 0.1609,-0.2025 0.0289,-0.0812 0.0437,-0.2787 0.0437,-0.5927l0 -0.9257 0.5807 0 0 2.195 -0.539 0z"/>
  <path class="fil1" d="M107.702 112.583l0.3224 0 0 -0.1658c0,-0.1841 0.0198,-0.3224 0.0593,-0.4134 0.0395,-0.091 0.1115,-0.1651 0.2166,-0.2223 0.1058,-0.0571 0.2392,-0.0853 0.4,-0.0853 0.1658,0 0.3274,0.0247 0.4862,0.074l-0.0784 0.4057c-0.0924,-0.0225 -0.1813,-0.0331 -0.2666,-0.0331 -0.0847,0 -0.1447,0.019 -0.1814,0.0585 -0.0367,0.0395 -0.0543,0.115 -0.0543,0.2265l0 0.1552 0.4339 0 0 0.4565 -0.4339 0 0 1.7385 -0.5814 0 0 -1.7385 -0.3224 0 0 -0.4565z"/>
  <path class="fil1" d="M109.111 112.583l0.3224 0 0 -0.1658c0,-0.1841 0.0198,-0.3224 0.0593,-0.4134 0.0395,-0.091 0.1115,-0.1651 0.2166,-0.2223 0.1058,-0.0571 0.2392,-0.0853 0.4,-0.0853 0.1658,0 0.3274,0.0247 0.4862,0.074l-0.0784 0.4057c-0.0924,-0.0225 -0.1813,-0.0331 -0.2666,-0.0331 -0.0847,0 -0.1447,0.019 -0.1814,0.0585 -0.0367,0.0395 -0.0543,0.115 -0.0543,0.2265l0 0.1552 0.4339 0 0 0.4565 -0.4339 0 0 1.7385 -0.5814 0 0 -1.7385 -0.3224 0 0 -0.4565z"/>
  <path class="fil1" d="M112.046 114.079l0.5792 0.0967c-0.0747,0.2123 -0.1919,0.3739 -0.3527,0.4847 -0.1602,0.1115 -0.3613,0.1665 -0.6026,0.1665 -0.3817,0 -0.6639,-0.1242 -0.8473,-0.374 -0.1447,-0.1996 -0.2173,-0.4522 -0.2173,-0.7563 0,-0.3641 0.0952,-0.6491 0.2857,-0.8551 0.1898,-0.206 0.4304,-0.3091 0.7211,-0.3091 0.3266,0 0.5842,0.108 0.7733,0.3239 0.1883,0.2159 0.2786,0.5461 0.2709,0.9913l-1.4556 0c0.0043,0.1721 0.0508,0.3062 0.1404,0.4014 0.0896,0.096 0.2018,0.144 0.3352,0.144 0.091,0 0.1672,-0.0247 0.2293,-0.0741 0.0621,-0.0501 0.1093,-0.1298 0.1404,-0.2399zm0.0331 -0.587c-0.0042,-0.1686 -0.0472,-0.2963 -0.1298,-0.3838 -0.0825,-0.0875 -0.1834,-0.1313 -0.3019,-0.1313 -0.127,0 -0.2315,0.0466 -0.314,0.139 -0.0826,0.0918 -0.1235,0.2173 -0.1221,0.3761l0.8678 0z"/>
  <path class="fil1" d="M113.686 114.778l-0.5807 0 0 -2.195 0.539 0 0 0.3119c0.0925,-0.1475 0.1757,-0.2448 0.2491,-0.2914 0.0741,-0.0466 0.1573,-0.0706 0.2512,-0.0706 0.1326,0 0.2596,0.0367 0.3824,0.1101l-0.1799 0.5059c-0.0974,-0.0628 -0.1884,-0.0946 -0.2724,-0.0946 -0.0818,0 -0.1503,0.0219 -0.2067,0.0671 -0.0572,0.0444 -0.1009,0.1256 -0.1334,0.2427 -0.0324,0.1171 -0.0486,0.3626 -0.0486,0.7359l0 0.678z"/>
  <path class="fil1" d="M115.959 114.778l0 -3.0303 1.2884 0c0.3238,0 0.5588,0.0275 0.7055,0.0818 0.1468,0.0543 0.2646,0.151 0.3528,0.29 0.0882,0.1397 0.1319,0.2984 0.1319,0.4776 0,0.2272 -0.067,0.4156 -0.2003,0.5638 -0.1334,0.1474 -0.3338,0.2413 -0.5998,0.2794 0.1327,0.0776 0.242,0.1623 0.3281,0.2547 0.0861,0.0924 0.2018,0.2561 0.3479,0.4917l0.3704 0.5913 -0.7317 0 -0.4424 -0.6597c-0.1573,-0.2356 -0.2645,-0.3838 -0.3224,-0.4452 -0.0579,-0.0614 -0.1192,-0.103 -0.1841,-0.1263 -0.065,-0.0226 -0.1673,-0.0339 -0.3084,-0.0339l-0.1234 0 0 1.2651 -0.6125 0zm0.6125 -1.7491l0.4522 0c0.2935,0 0.477,-0.012 0.5503,-0.0366 0.0727,-0.0247 0.1299,-0.0678 0.1715,-0.1285 0.0409,-0.0606 0.0621,-0.1361 0.0621,-0.2271 0,-0.1023 -0.0275,-0.1842 -0.0819,-0.247 -0.0543,-0.0628 -0.1312,-0.1023 -0.2307,-0.1192 -0.0494,-0.0064 -0.1982,-0.0099 -0.4466,-0.0099l-0.4769 0 0 0.7683z"/>
  <path class="fil1" d="M121.748 114.778l-0.666 0 -0.2646 -0.6886 -1.2114 0 -0.2498 0.6886 -0.6491 0 1.1804 -3.0303 0.647 0 1.2135 3.0303zm-1.1267 -1.1987l-0.4177 -1.1247 -0.4092 1.1247 0.8269 0z"/>
  <polygon class="fil1" points="122.064,114.778 122.064,111.748 122.98,111.748 123.529,113.815 124.073,111.748 124.99,111.748 124.99,114.778 124.422,114.778 124.422,112.392 123.821,114.778 123.231,114.778 122.632,112.392 122.632,114.778 "/>
  <rect class="fil0 str0" x="145.756" y="81.4376" width="32.6151" height="14.8428"/>
  <rect class="fil0 str0" x="145.756" y="129.698" width="32.6151" height="14.8428"/>
  <rect class="fil0 str0" x="97.4959" y="129.698" width="32.6151" height="14.8428"/>
  <rect class="fil0 str0" x="97.4959" y="81.4376" width="32.6151" height="14.8428"/>
  <polygon class="fil1" points="149.168,87.7914 149.168,85.274 148.269,85.274 148.269,84.7611 150.677,84.7611 150.677,85.274 149.78,85.274 149.78,87.7914 "/>
  <polygon class="fil1" points="150.763,87.7914 151.799,86.2103 150.861,84.7611 151.576,84.7611 152.184,85.7347 152.779,84.7611 153.488,84.7611 152.545,86.2328 153.581,87.7914 152.843,87.7914 152.171,86.7437 151.497,87.7914 "/>
  <path class="fil1" d="M157.08 87.7914l-0.539 0 0 -0.3224c-0.0896,0.1256 -0.1955,0.2187 -0.3175,0.2801 -0.1221,0.0613 -0.2448,0.0917 -0.369,0.0917 -0.2526,0 -0.4685,-0.1016 -0.6484,-0.3048 -0.1792,-0.2032 -0.2695,-0.4868 -0.2695,-0.8502 0,-0.3725 0.0875,-0.6555 0.2624,-0.8488 0.175,-0.1933 0.3965,-0.2907 0.664,-0.2907 0.2448,0 0.4571,0.1023 0.6364,0.3062l0 -1.0914 0.5806 0 0 3.0303zm-1.5501 -1.1451c0,0.2342 0.0325,0.4036 0.0974,0.5087 0.0931,0.151 0.2244,0.2272 0.3923,0.2272 0.134,0 0.2476,-0.0572 0.3415,-0.1708 0.0931,-0.1136 0.1404,-0.2836 0.1404,-0.5094 0,-0.2519 -0.0459,-0.4339 -0.1362,-0.5447 -0.091,-0.1107 -0.2074,-0.1665 -0.3499,-0.1665 -0.1376,0 -0.2526,0.0551 -0.3458,0.1644 -0.0931,0.1094 -0.1397,0.2731 -0.1397,0.4911z"/>
  <path class="fil1" d="M158.924 87.0929l0.5792 0.0967c-0.0747,0.2123 -0.1919,0.3739 -0.3527,0.4847 -0.1602,0.1115 -0.3613,0.1665 -0.6026,0.1665 -0.3817,0 -0.6639,-0.1242 -0.8473,-0.374 -0.1447,-0.1996 -0.2173,-0.4522 -0.2173,-0.7563 0,-0.3641 0.0952,-0.6491 0.2857,-0.8551 0.1898,-0.206 0.4304,-0.3091 0.7211,-0.3091 0.3266,0 0.5842,0.108 0.7733,0.3239 0.1883,0.2159 0.2786,0.5461 0.2709,0.9913l-1.4556 0c0.0043,0.1721 0.0508,0.3062 0.1404,0.4014 0.0896,0.096 0.2018,0.144 0.3352,0.144 0.091,0 0.1672,-0.0247 0.2293,-0.0741 0.0621,-0.0501 0.1093,-0.1298 0.1404,-0.2399zm0.0331 -0.587c-0.0042,-0.1686 -0.0472,-0.2963 -0.1298,-0.3838 -0.0825,-0.0875 -0.1834,-0.1313 -0.3019,-0.1313 -0.127,0 -0.2315,0.0466 -0.314,0.139 -0.0826,0.0918 -0.1235,0.2173 -0.1221,0.3761l0.8678 0z"/>
  <path class="fil1" d="M159.803 87.1649l0.5828 -0.0889c0.0247,0.1129 0.0748,0.1989 0.151,0.2575 0.0754,0.0586 0.1813,0.0882 0.3182,0.0882 0.1502,0 0.2631,-0.0275 0.3386,-0.0833 0.0515,-0.0381 0.0769,-0.0903 0.0769,-0.1545 0,-0.0444 -0.0141,-0.0811 -0.0416,-0.11 -0.0289,-0.0276 -0.0938,-0.053 -0.194,-0.0762 -0.4685,-0.1031 -0.7655,-0.1976 -0.8911,-0.283 -0.1736,-0.1185 -0.2604,-0.2836 -0.2604,-0.4946 0,-0.1898 0.0748,-0.3499 0.2251,-0.479 0.1503,-0.1298 0.3831,-0.1948 0.6985,-0.1948 0.3005,0 0.5242,0.0494 0.6703,0.1468 0.146,0.0981 0.2462,0.2427 0.3012,0.4346l-0.5475 0.1009c-0.0233,-0.0854 -0.0677,-0.151 -0.1333,-0.1961 -0.0656,-0.0459 -0.1588,-0.0685 -0.2801,-0.0685 -0.1531,0 -0.2625,0.0212 -0.3288,0.0642 -0.0438,0.0304 -0.0656,0.0699 -0.0656,0.1179 0,0.0416 0.019,0.0762 0.0578,0.1051 0.0522,0.0388 0.2328,0.0931 0.5426,0.1637 0.309,0.0698 0.5249,0.1559 0.6477,0.2582 0.1213,0.1037 0.182,0.2477 0.182,0.4318 0,0.2011 -0.0839,0.3746 -0.2526,0.5193 -0.1679,0.1446 -0.4163,0.2166 -0.7457,0.2166 -0.2992,0 -0.5356,-0.0607 -0.7105,-0.182 -0.1743,-0.1207 -0.2879,-0.2858 -0.3415,-0.4939z"/>
  <path class="fil1" d="M164.276 86.2455l-0.5729 0.1031c-0.019,-0.1143 -0.0628,-0.2004 -0.1312,-0.2583 -0.0684,-0.0578 -0.1566,-0.0868 -0.2653,-0.0868 -0.1453,0 -0.2603,0.0501 -0.3464,0.1496 -0.0861,0.1002 -0.1291,0.2674 -0.1291,0.5017 0,0.2603 0.0437,0.4445 0.1312,0.5517 0.0875,0.1072 0.2046,0.1609 0.3521,0.1609 0.1108,0 0.2004,-0.0311 0.2709,-0.0939 0.0706,-0.0628 0.12,-0.1707 0.1489,-0.3231l0.5708 0.0966c-0.0593,0.2618 -0.1736,0.4601 -0.3415,0.5934 -0.1679,0.1341 -0.393,0.2004 -0.6759,0.2004 -0.3211,0 -0.5772,-0.1009 -0.7677,-0.3034 -0.1912,-0.2025 -0.2864,-0.4833 -0.2864,-0.8417 0,-0.362 0.0959,-0.6442 0.2871,-0.846 0.192,-0.2025 0.4509,-0.3034 0.7776,-0.3034 0.2674,0 0.4797,0.0579 0.6378,0.1729 0.1573,0.115 0.2709,0.2907 0.34,0.5263z"/>
  <path class="fil1" d="M165.272 87.7914l-0.5807 0 0 -2.195 0.539 0 0 0.3119c0.0925,-0.1475 0.1757,-0.2448 0.2491,-0.2914 0.0741,-0.0466 0.1573,-0.0706 0.2512,-0.0706 0.1326,0 0.2596,0.0367 0.3824,0.1101l-0.1799 0.5059c-0.0974,-0.0628 -0.1884,-0.0946 -0.2724,-0.0946 -0.0818,0 -0.1503,0.0219 -0.2067,0.0671 -0.0572,0.0444 -0.1009,0.1256 -0.1334,0.2427 -0.0324,0.1171 -0.0486,0.3626 -0.0486,0.7359l0 0.678z"/>
  <path class="fil1" d="M166.364 85.2987l0 -0.5376 0.5807 0 0 0.5376 -0.5807 0zm0 2.4927l0 -2.195 0.5807 0 0 2.195 -0.5807 0z"/>
  <path class="fil1" d="M167.523 85.5964l0.5418 0 0 0.3225c0.0699,-0.1108 0.1651,-0.2004 0.2851,-0.2688 0.1199,-0.0692 0.2533,-0.1038 0.3993,-0.1038 0.2547,0 0.4713,0.1002 0.6484,0.2999 0.1778,0.1997 0.2667,0.4784 0.2667,0.8354 0,0.3662 -0.0896,0.6512 -0.2681,0.8544 -0.1792,0.2032 -0.3965,0.3048 -0.6512,0.3048 -0.1214,0 -0.2314,-0.024 -0.3302,-0.072 -0.0981,-0.0487 -0.2018,-0.1312 -0.3112,-0.2483l0 1.1063 -0.5806 0 0 -3.0304zm0.575 1.0605c0,0.2462 0.0487,0.4289 0.1467,0.5461 0.0974,0.1178 0.2166,0.1771 0.3578,0.1771 0.1347,0 0.2469,-0.0544 0.3365,-0.1623 0.0896,-0.108 0.1348,-0.2858 0.1348,-0.532 0,-0.2307 -0.0466,-0.4015 -0.139,-0.5129 -0.0925,-0.1115 -0.2068,-0.1672 -0.3429,-0.1672 -0.1418,0 -0.2597,0.0543 -0.3535,0.1643 -0.0939,0.1094 -0.1404,0.2717 -0.1404,0.4869z"/>
  <path class="fil1" d="M171.132 85.5964l0 0.4629 -0.3965 0 0 0.8847c0,0.1792 0.0035,0.2837 0.0113,0.3133 0.0077,0.0296 0.0247,0.0536 0.0515,0.0734 0.0268,0.019 0.06,0.0289 0.0981,0.0289 0.0543,0 0.1319,-0.019 0.2342,-0.0557l0.0494 0.4501c-0.1355,0.0579 -0.2879,0.0868 -0.4593,0.0868 -0.1045,0 -0.199,-0.0177 -0.283,-0.0522 -0.0839,-0.0353 -0.1453,-0.0812 -0.1848,-0.1369 -0.0395,-0.0557 -0.0663,-0.1312 -0.0819,-0.2265 -0.0119,-0.067 -0.0183,-0.2039 -0.0183,-0.4092l0 -0.9567 -0.2667 0 0 -0.4629 0.2667 0 0 -0.4367 0.5828 -0.3387 0 0.7754 0.3965 0z"/>
  <path class="fil1" d="M171.401 86.6625c0,-0.1926 0.048,-0.3796 0.1426,-0.5602 0.0952,-0.1799 0.23,-0.3182 0.4042,-0.4127 0.1743,-0.0953 0.369,-0.1433 0.5842,-0.1433 0.3316,0 0.604,0.108 0.8164,0.3239 0.2123,0.2159 0.3182,0.4882 0.3182,0.8177 0,0.3316 -0.1073,0.6068 -0.3211,0.8255 -0.2145,0.2187 -0.484,0.3274 -0.8092,0.3274 -0.2018,0 -0.393,-0.0452 -0.5758,-0.1362 -0.1827,-0.091 -0.3217,-0.2243 -0.4169,-0.4 -0.0946,-0.1757 -0.1426,-0.3895 -0.1426,-0.6421zm0.5955 0.0311c0,0.218 0.0515,0.3845 0.1552,0.5002 0.103,0.1157 0.2308,0.1736 0.3824,0.1736 0.1517,0 0.2787,-0.0579 0.381,-0.1736 0.1031,-0.1157 0.1546,-0.2836 0.1546,-0.5045 0,-0.2145 -0.0515,-0.3803 -0.1546,-0.496 -0.1023,-0.1157 -0.2293,-0.1735 -0.381,-0.1735 -0.1516,0 -0.2794,0.0578 -0.3824,0.1735 -0.1037,0.1157 -0.1552,0.283 -0.1552,0.5003z"/>
  <path class="fil1" d="M174.677 87.7914l-0.5807 0 0 -2.195 0.539 0 0 0.3119c0.0925,-0.1475 0.1757,-0.2448 0.2491,-0.2914 0.0741,-0.0466 0.1573,-0.0706 0.2512,-0.0706 0.1326,0 0.2596,0.0367 0.3824,0.1101l-0.1799 0.5059c-0.0974,-0.0628 -0.1884,-0.0946 -0.2724,-0.0946 -0.0818,0 -0.1503,0.0219 -0.2067,0.0671 -0.0572,0.0444 -0.1009,0.1256 -0.1334,0.2427 -0.0324,0.1171 -0.0486,0.3626 -0.0486,0.7359l0 0.678z"/>
  <path class="fil1" d="M151.373 90.3257l0 0.4629 -0.3965 0 0 0.8847c0,0.1792 0.0035,0.2837 0.0113,0.3133 0.0077,0.0296 0.0247,0.0536 0.0515,0.0734 0.0268,0.019 0.06,0.0289 0.0981,0.0289 0.0543,0 0.1319,-0.019 0.2342,-0.0557l0.0494 0.4501c-0.1355,0.0579 -0.2879,0.0868 -0.4593,0.0868 -0.1045,0 -0.199,-0.0177 -0.283,-0.0522 -0.0839,-0.0353 -0.1453,-0.0812 -0.1848,-0.1369 -0.0395,-0.0557 -0.0663,-0.1312 -0.0819,-0.2265 -0.0119,-0.067 -0.0183,-0.2039 -0.0183,-0.4092l0 -0.9567 -0.2667 0 0 -0.4629 0.2667 0 0 -0.4367 0.5828 -0.3387 0 0.7754 0.3965 0z"/>
  <path class="fil1" d="M152.211 90.9953l-0.527 -0.0952c0.0592,-0.2124 0.1608,-0.3691 0.3055,-0.4714 0.1453,-0.1016 0.3598,-0.1531 0.6448,-0.1531 0.2597,0 0.4523,0.0311 0.5793,0.0925 0.1263,0.0613 0.2159,0.139 0.2674,0.2335 0.0515,0.0945 0.0776,0.2674 0.0776,0.52l-0.0063 0.678c0,0.1926 0.0091,0.3352 0.0282,0.4269 0.0183,0.091 0.0536,0.1898 0.1044,0.2942l-0.575 0c-0.0148,-0.0388 -0.0339,-0.096 -0.0558,-0.1714 -0.0091,-0.0346 -0.0162,-0.0572 -0.0204,-0.0685 -0.0995,0.0967 -0.2053,0.1686 -0.3182,0.2173 -0.1129,0.048 -0.2336,0.072 -0.362,0.072 -0.2257,0 -0.4043,-0.0614 -0.5341,-0.1835 -0.1305,-0.1227 -0.1954,-0.2779 -0.1954,-0.4656 0,-0.1235 0.0296,-0.2343 0.0889,-0.3316 0.0593,-0.0974 0.1425,-0.1715 0.249,-0.223 0.1066,-0.0515 0.2611,-0.0966 0.4622,-0.1354 0.2709,-0.0508 0.4593,-0.0988 0.5637,-0.1426l0 -0.0578c0,-0.1122 -0.0275,-0.1912 -0.0825,-0.2392 -0.0551,-0.0473 -0.1588,-0.0713 -0.3119,-0.0713 -0.1037,0 -0.1841,0.0205 -0.242,0.0614 -0.0578,0.0402 -0.1044,0.1115 -0.1404,0.2138zm0.7768 0.4713c-0.0741,0.0247 -0.1919,0.0543 -0.3535,0.0889 -0.1608,0.0346 -0.266,0.0684 -0.3161,0.1009 -0.0754,0.0543 -0.1135,0.1221 -0.1135,0.2046 0,0.0819 0.0303,0.1517 0.091,0.211 0.0606,0.0592 0.1376,0.0889 0.2314,0.0889 0.1051,0 0.2046,-0.0346 0.2999,-0.103 0.0705,-0.0523 0.1164,-0.1165 0.1382,-0.1927 0.0156,-0.0493 0.0226,-0.1439 0.0226,-0.2829l0 -0.1157z"/>
  <path class="fil1" d="M154.106 92.5207l0 -3.0303 0.5807 0 0 1.0914c0.1792,-0.2039 0.3908,-0.3062 0.6364,-0.3062 0.2674,0 0.4882,0.0974 0.6639,0.2907 0.175,0.1933 0.2625,0.4713 0.2625,0.834 0,0.3746 -0.0896,0.6639 -0.2682,0.8664 -0.1785,0.2025 -0.3951,0.3034 -0.6498,0.3034 -0.1255,0 -0.249,-0.0311 -0.3711,-0.0938 -0.122,-0.0628 -0.2272,-0.1553 -0.3154,-0.278l0 0.3224 -0.539 0zm0.5764 -1.1451c0,0.2272 0.036,0.3951 0.1073,0.5045 0.1009,0.1545 0.2342,0.2314 0.4014,0.2314 0.1277,0 0.2371,-0.0551 0.3274,-0.1644 0.0903,-0.1094 0.1355,-0.2822 0.1355,-0.5179 0,-0.2505 -0.0459,-0.4318 -0.1369,-0.5426 -0.0903,-0.1107 -0.2067,-0.1665 -0.3492,-0.1665 -0.139,0 -0.2548,0.0544 -0.3472,0.1623 -0.0924,0.1087 -0.1383,0.2724 -0.1383,0.4932z"/>
  <polygon class="fil1" points="156.717,92.5207 156.717,89.4904 157.298,89.4904 157.298,92.5207 "/>
  <path class="fil1" d="M159.164 91.8222l0.5792 0.0967c-0.0747,0.2123 -0.1919,0.3739 -0.3527,0.4847 -0.1602,0.1115 -0.3613,0.1665 -0.6026,0.1665 -0.3817,0 -0.6639,-0.1242 -0.8473,-0.374 -0.1447,-0.1996 -0.2173,-0.4522 -0.2173,-0.7563 0,-0.3641 0.0952,-0.6491 0.2857,-0.8551 0.1898,-0.206 0.4304,-0.3091 0.7211,-0.3091 0.3266,0 0.5842,0.108 0.7733,0.3239 0.1883,0.2159 0.2786,0.5461 0.2709,0.9913l-1.4556 0c0.0043,0.1721 0.0508,0.3062 0.1404,0.4014 0.0896,0.096 0.2018,0.144 0.3352,0.144 0.091,0 0.1672,-0.0247 0.2293,-0.0741 0.0621,-0.0501 0.1093,-0.1298 0.1404,-0.2399zm0.0331 -0.587c-0.0042,-0.1686 -0.0472,-0.2963 -0.1298,-0.3838 -0.0825,-0.0875 -0.1834,-0.1313 -0.3019,-0.1313 -0.127,0 -0.2315,0.0466 -0.314,0.139 -0.0826,0.0918 -0.1235,0.2173 -0.1221,0.3761l0.8678 0z"/>
  <path class="fil1" d="M162.387 93.4118l-0.3994 0c-0.2102,-0.3182 -0.3711,-0.6491 -0.4812,-0.9927 -0.11,-0.3429 -0.1658,-0.6752 -0.1658,-0.9962 0,-0.398 0.0685,-0.7747 0.2054,-1.1303 0.1178,-0.3091 0.2681,-0.5934 0.4501,-0.8537l0.3972 0c-0.1891,0.4176 -0.3189,0.7725 -0.3902,1.0653 -0.0705,0.2928 -0.1058,0.6033 -0.1058,0.9314 0,0.2257 0.0205,0.4572 0.0628,0.6942 0.0416,0.2371 0.0995,0.4629 0.1729,0.6759 0.0479,0.1412 0.1326,0.3429 0.254,0.6061z"/>
  <path class="fil1" d="M162.839 92.5207l0 -3.0303 1.2884 0c0.3238,0 0.5588,0.0275 0.7055,0.0818 0.1468,0.0543 0.2646,0.151 0.3528,0.29 0.0882,0.1397 0.1319,0.2984 0.1319,0.4776 0,0.2272 -0.067,0.4156 -0.2003,0.5638 -0.1334,0.1474 -0.3338,0.2413 -0.5998,0.2794 0.1327,0.0776 0.242,0.1623 0.3281,0.2547 0.0861,0.0924 0.2018,0.2561 0.3479,0.4917l0.3704 0.5913 -0.7317 0 -0.4424 -0.6597c-0.1573,-0.2356 -0.2645,-0.3838 -0.3224,-0.4452 -0.0579,-0.0614 -0.1192,-0.103 -0.1841,-0.1263 -0.065,-0.0226 -0.1673,-0.0339 -0.3084,-0.0339l-0.1234 0 0 1.2651 -0.6125 0zm0.6125 -1.7491l0.4522 0c0.2935,0 0.477,-0.012 0.5503,-0.0366 0.0727,-0.0247 0.1299,-0.0678 0.1715,-0.1285 0.0409,-0.0606 0.0621,-0.1361 0.0621,-0.2271 0,-0.1023 -0.0275,-0.1842 -0.0819,-0.247 -0.0543,-0.0628 -0.1312,-0.1023 -0.2307,-0.1192 -0.0494,-0.0064 -0.1982,-0.0099 -0.4466,-0.0099l-0.4769 0 0 0.7683z"/>
  <path class="fil1" d="M168.627 92.5207l-0.666 0 -0.2646 -0.6886 -1.2114 0 -0.2498 0.6886 -0.6491 0 1.1804 -3.0303 0.647 0 1.2135 3.0303zm-1.1267 -1.1987l-0.4177 -1.1247 -0.4092 1.1247 0.8269 0z"/>
  <polygon class="fil1" points="168.943,92.5207 168.943,89.4904 169.859,89.4904 170.409,91.5576 170.952,89.4904 171.87,89.4904 171.87,92.5207 171.302,92.5207 171.302,90.1352 170.7,92.5207 170.111,92.5207 169.511,90.1352 169.511,92.5207 "/>
  <path class="fil1" d="M172.312 93.4118c0.1143,-0.2455 0.1955,-0.4339 0.242,-0.5644 0.0466,-0.1313 0.0903,-0.2823 0.1298,-0.453 0.0403,-0.1707 0.0699,-0.333 0.0889,-0.4868 0.0198,-0.1531 0.029,-0.3112 0.029,-0.472 0,-0.3281 -0.0346,-0.6386 -0.1052,-0.9314 -0.0705,-0.2928 -0.1996,-0.6477 -0.3887,-1.0653l0.3951 0c0.2081,0.2963 0.3697,0.6103 0.4847,0.9426 0.115,0.3316 0.1729,0.6688 0.1729,1.0103 0,0.2886 -0.0459,0.5969 -0.1369,0.9264 -0.103,0.369 -0.2738,0.7338 -0.5101,1.0936l-0.4015 0z"/>
  <path class="fil1" d="M148.252 136.051l0 -3.0303 1.2884 0c0.3238,0 0.5588,0.0275 0.7055,0.0818 0.1468,0.0543 0.2646,0.151 0.3528,0.29 0.0882,0.1397 0.1319,0.2984 0.1319,0.4776 0,0.2272 -0.067,0.4156 -0.2003,0.5638 -0.1334,0.1474 -0.3338,0.2413 -0.5998,0.2794 0.1327,0.0776 0.242,0.1623 0.3281,0.2547 0.0861,0.0924 0.2018,0.2561 0.3479,0.4917l0.3704 0.5913 -0.7317 0 -0.4424 -0.6597c-0.1573,-0.2356 -0.2645,-0.3838 -0.3224,-0.4452 -0.0579,-0.0614 -0.1192,-0.103 -0.1841,-0.1263 -0.065,-0.0226 -0.1673,-0.0339 -0.3084,-0.0339l-0.1234 0 0 1.2651 -0.6125 0zm0.6125 -1.7491l0.4522 0c0.2935,0 0.477,-0.012 0.5503,-0.0366 0.0727,-0.0247 0.1299,-0.0678 0.1715,-0.1285 0.0409,-0.0606 0.0621,-0.1361 0.0621,-0.2271 0,-0.1023 -0.0275,-0.1842 -0.0819,-0.247 -0.0543,-0.0628 -0.1312,-0.1023 -0.2307,-0.1192 -0.0494,-0.0064 -0.1982,-0.0099 -0.4466,-0.0099l-0.4769 0 0 0.7683z"/>
  <polygon class="fil1" points="150.999,136.051 152.035,134.47 151.096,133.021 151.811,133.021 152.419,133.995 153.014,133.021 153.723,133.021 152.781,134.493 153.816,136.051 153.078,136.051 152.407,135.004 151.733,136.051 "/>
  <path class="fil1" d="M157.316 136.051l-0.539 0 0 -0.3224c-0.0896,0.1256 -0.1955,0.2187 -0.3175,0.2801 -0.1221,0.0613 -0.2448,0.0917 -0.369,0.0917 -0.2526,0 -0.4685,-0.1016 -0.6484,-0.3048 -0.1792,-0.2032 -0.2695,-0.4868 -0.2695,-0.8502 0,-0.3725 0.0875,-0.6555 0.2624,-0.8488 0.175,-0.1933 0.3965,-0.2907 0.664,-0.2907 0.2448,0 0.4571,0.1023 0.6364,0.3062l0 -1.0914 0.5806 0 0 3.0303zm-1.5501 -1.1451c0,0.2342 0.0325,0.4036 0.0974,0.5087 0.0931,0.151 0.2244,0.2272 0.3923,0.2272 0.134,0 0.2476,-0.0572 0.3415,-0.1708 0.0931,-0.1136 0.1404,-0.2836 0.1404,-0.5094 0,-0.2519 -0.0459,-0.4339 -0.1362,-0.5447 -0.091,-0.1107 -0.2074,-0.1665 -0.3499,-0.1665 -0.1376,0 -0.2526,0.0551 -0.3458,0.1644 -0.0931,0.1094 -0.1397,0.2731 -0.1397,0.4911z"/>
  <path class="fil1" d="M159.16 135.353l0.5792 0.0967c-0.0747,0.2123 -0.1919,0.3739 -0.3527,0.4847 -0.1602,0.1115 -0.3613,0.1665 -0.6026,0.1665 -0.3817,0 -0.6639,-0.1242 -0.8473,-0.374 -0.1447,-0.1996 -0.2173,-0.4522 -0.2173,-0.7563 0,-0.3641 0.0952,-0.6491 0.2857,-0.8551 0.1898,-0.206 0.4304,-0.3091 0.7211,-0.3091 0.3266,0 0.5842,0.108 0.7733,0.3239 0.1883,0.2159 0.2786,0.5461 0.2709,0.9913l-1.4556 0c0.0043,0.1721 0.0508,0.3062 0.1404,0.4014 0.0896,0.096 0.2018,0.144 0.3352,0.144 0.091,0 0.1672,-0.0247 0.2293,-0.0741 0.0621,-0.0501 0.1093,-0.1298 0.1404,-0.2399zm0.0331 -0.587c-0.0042,-0.1686 -0.0472,-0.2963 -0.1298,-0.3838 -0.0825,-0.0875 -0.1834,-0.1313 -0.3019,-0.1313 -0.127,0 -0.2315,0.0466 -0.314,0.139 -0.0826,0.0918 -0.1235,0.2173 -0.1221,0.3761l0.8678 0z"/>
  <path class="fil1" d="M160.039 135.425l0.5828 -0.0889c0.0247,0.1129 0.0748,0.1989 0.151,0.2575 0.0754,0.0586 0.1813,0.0882 0.3182,0.0882 0.1502,0 0.2631,-0.0275 0.3386,-0.0833 0.0515,-0.0381 0.0769,-0.0903 0.0769,-0.1545 0,-0.0444 -0.0141,-0.0811 -0.0416,-0.11 -0.0289,-0.0276 -0.0938,-0.053 -0.194,-0.0762 -0.4685,-0.1031 -0.7655,-0.1976 -0.8911,-0.283 -0.1736,-0.1185 -0.2604,-0.2836 -0.2604,-0.4946 0,-0.1898 0.0748,-0.3499 0.2251,-0.479 0.1503,-0.1298 0.3831,-0.1948 0.6985,-0.1948 0.3005,0 0.5242,0.0494 0.6703,0.1468 0.146,0.0981 0.2462,0.2427 0.3012,0.4346l-0.5475 0.1009c-0.0233,-0.0854 -0.0677,-0.151 -0.1333,-0.1961 -0.0656,-0.0459 -0.1588,-0.0685 -0.2801,-0.0685 -0.1531,0 -0.2625,0.0212 -0.3288,0.0642 -0.0438,0.0304 -0.0656,0.0699 -0.0656,0.1179 0,0.0416 0.019,0.0762 0.0578,0.1051 0.0522,0.0388 0.2328,0.0931 0.5426,0.1637 0.309,0.0698 0.5249,0.1559 0.6477,0.2582 0.1213,0.1037 0.182,0.2477 0.182,0.4318 0,0.2011 -0.0839,0.3746 -0.2526,0.5193 -0.1679,0.1446 -0.4163,0.2166 -0.7457,0.2166 -0.2992,0 -0.5356,-0.0607 -0.7105,-0.182 -0.1743,-0.1207 -0.2879,-0.2858 -0.3415,-0.4939z"/>
  <path class="fil1" d="M164.512 134.506l-0.5729 0.1031c-0.019,-0.1143 -0.0628,-0.2004 -0.1312,-0.2583 -0.0684,-0.0578 -0.1566,-0.0868 -0.2653,-0.0868 -0.1453,0 -0.2603,0.0501 -0.3464,0.1496 -0.0861,0.1002 -0.1291,0.2674 -0.1291,0.5017 0,0.2603 0.0437,0.4445 0.1312,0.5517 0.0875,0.1072 0.2046,0.1609 0.3521,0.1609 0.1108,0 0.2004,-0.0311 0.2709,-0.0939 0.0706,-0.0628 0.12,-0.1707 0.1489,-0.3231l0.5708 0.0966c-0.0593,0.2618 -0.1736,0.4601 -0.3415,0.5934 -0.1679,0.1341 -0.393,0.2004 -0.6759,0.2004 -0.3211,0 -0.5772,-0.1009 -0.7677,-0.3034 -0.1912,-0.2025 -0.2864,-0.4833 -0.2864,-0.8417 0,-0.362 0.0959,-0.6442 0.2871,-0.846 0.192,-0.2025 0.4509,-0.3034 0.7776,-0.3034 0.2674,0 0.4797,0.0579 0.6378,0.1729 0.1573,0.115 0.2709,0.2907 0.34,0.5263z"/>
  <path class="fil1" d="M165.508 136.051l-0.5807 0 0 -2.195 0.539 0 0 0.3119c0.0925,-0.1475 0.1757,-0.2448 0.2491,-0.2914 0.0741,-0.0466 0.1573,-0.0706 0.2512,-0.0706 0.1326,0 0.2596,0.0367 0.3824,0.1101l-0.1799 0.5059c-0.0974,-0.0628 -0.1884,-0.0946 -0.2724,-0.0946 -0.0818,0 -0.1503,0.0219 -0.2067,0.0671 -0.0572,0.0444 -0.1009,0.1256 -0.1334,0.2427 -0.0324,0.1171 -0.0486,0.3626 -0.0486,0.7359l0 0.678z"/>
  <path class="fil1" d="M166.6 133.559l0 -0.5376 0.5807 0 0 0.5376 -0.5807 0zm0 2.4927l0 -2.195 0.5807 0 0 2.195 -0.5807 0z"/>
  <path class="fil1" d="M167.759 133.856l0.5418 0 0 0.3225c0.0699,-0.1108 0.1651,-0.2004 0.2851,-0.2688 0.1199,-0.0692 0.2533,-0.1038 0.3993,-0.1038 0.2547,0 0.4713,0.1002 0.6484,0.2999 0.1778,0.1997 0.2667,0.4784 0.2667,0.8354 0,0.3662 -0.0896,0.6512 -0.2681,0.8544 -0.1792,0.2032 -0.3965,0.3048 -0.6512,0.3048 -0.1214,0 -0.2314,-0.024 -0.3302,-0.072 -0.0981,-0.0487 -0.2018,-0.1312 -0.3112,-0.2483l0 1.1063 -0.5806 0 0 -3.0304zm0.575 1.0605c0,0.2462 0.0487,0.4289 0.1467,0.5461 0.0974,0.1178 0.2166,0.1771 0.3578,0.1771 0.1347,0 0.2469,-0.0544 0.3365,-0.1623 0.0896,-0.108 0.1348,-0.2858 0.1348,-0.532 0,-0.2307 -0.0466,-0.4015 -0.139,-0.5129 -0.0925,-0.1115 -0.2068,-0.1672 -0.3429,-0.1672 -0.1418,0 -0.2597,0.0543 -0.3535,0.1643 -0.0939,0.1094 -0.1404,0.2717 -0.1404,0.4869z"/>
  <path class="fil1" d="M171.368 133.856l0 0.4629 -0.3965 0 0 0.8847c0,0.1792 0.0035,0.2837 0.0113,0.3133 0.0077,0.0296 0.0247,0.0536 0.0515,0.0734 0.0268,0.019 0.06,0.0289 0.0981,0.0289 0.0543,0 0.1319,-0.019 0.2342,-0.0557l0.0494 0.4501c-0.1355,0.0579 -0.2879,0.0868 -0.4593,0.0868 -0.1045,0 -0.199,-0.0177 -0.283,-0.0522 -0.0839,-0.0353 -0.1453,-0.0812 -0.1848,-0.1369 -0.0395,-0.0557 -0.0663,-0.1312 -0.0819,-0.2265 -0.0119,-0.067 -0.0183,-0.2039 -0.0183,-0.4092l0 -0.9567 -0.2667 0 0 -0.4629 0.2667 0 0 -0.4367 0.5828 -0.3387 0 0.7754 0.3965 0z"/>
  <path class="fil1" d="M171.636 134.923c0,-0.1926 0.048,-0.3796 0.1426,-0.5602 0.0952,-0.1799 0.23,-0.3182 0.4042,-0.4127 0.1743,-0.0953 0.369,-0.1433 0.5842,-0.1433 0.3316,0 0.604,0.108 0.8164,0.3239 0.2123,0.2159 0.3182,0.4882 0.3182,0.8177 0,0.3316 -0.1073,0.6068 -0.3211,0.8255 -0.2145,0.2187 -0.484,0.3274 -0.8092,0.3274 -0.2018,0 -0.393,-0.0452 -0.5758,-0.1362 -0.1827,-0.091 -0.3217,-0.2243 -0.4169,-0.4 -0.0946,-0.1757 -0.1426,-0.3895 -0.1426,-0.6421zm0.5955 0.0311c0,0.218 0.0515,0.3845 0.1552,0.5002 0.103,0.1157 0.2308,0.1736 0.3824,0.1736 0.1517,0 0.2787,-0.0579 0.381,-0.1736 0.1031,-0.1157 0.1546,-0.2836 0.1546,-0.5045 0,-0.2145 -0.0515,-0.3803 -0.1546,-0.496 -0.1023,-0.1157 -0.2293,-0.1735 -0.381,-0.1735 -0.1516,0 -0.2794,0.0578 -0.3824,0.1735 -0.1037,0.1157 -0.1552,0.283 -0.1552,0.5003z"/>
  <path class="fil1" d="M174.913 136.051l-0.5807 0 0 -2.195 0.539 0 0 0.3119c0.0925,-0.1475 0.1757,-0.2448 0.2491,-0.2914 0.0741,-0.0466 0.1573,-0.0706 0.2512,-0.0706 0.1326,0 0.2596,0.0367 0.3824,0.1101l-0.1799 0.5059c-0.0974,-0.0628 -0.1884,-0.0946 -0.2724,-0.0946 -0.0818,0 -0.1503,0.0219 -0.2067,0.0671 -0.0572,0.0444 -0.1009,0.1256 -0.1334,0.2427 -0.0324,0.1171 -0.0486,0.3626 -0.0486,0.7359l0 0.678z"/>
  <path class="fil1" d="M151.373 138.586l0 0.4629 -0.3965 0 0 0.8847c0,0.1792 0.0035,0.2837 0.0113,0.3133 0.0077,0.0296 0.0247,0.0536 0.0515,0.0734 0.0268,0.019 0.06,0.0289 0.0981,0.0289 0.0543,0 0.1319,-0.019 0.2342,-0.0557l0.0494 0.4501c-0.1355,0.0579 -0.2879,0.0868 -0.4593,0.0868 -0.1045,0 -0.199,-0.0177 -0.283,-0.0522 -0.0839,-0.0353 -0.1453,-0.0812 -0.1848,-0.1369 -0.0395,-0.0557 -0.0663,-0.1312 -0.0819,-0.2265 -0.0119,-0.067 -0.0183,-0.2039 -0.0183,-0.4092l0 -0.9567 -0.2667 0 0 -0.4629 0.2667 0 0 -0.4367 0.5828 -0.3387 0 0.7754 0.3965 0z"/>
  <path class="fil1" d="M152.211 139.255l-0.527 -0.0952c0.0592,-0.2124 0.1608,-0.3691 0.3055,-0.4714 0.1453,-0.1016 0.3598,-0.1531 0.6448,-0.1531 0.2597,0 0.4523,0.0311 0.5793,0.0925 0.1263,0.0613 0.2159,0.139 0.2674,0.2335 0.0515,0.0945 0.0776,0.2674 0.0776,0.52l-0.0063 0.678c0,0.1926 0.0091,0.3352 0.0282,0.4269 0.0183,0.091 0.0536,0.1898 0.1044,0.2942l-0.575 0c-0.0148,-0.0388 -0.0339,-0.096 -0.0558,-0.1714 -0.0091,-0.0346 -0.0162,-0.0572 -0.0204,-0.0685 -0.0995,0.0967 -0.2053,0.1686 -0.3182,0.2173 -0.1129,0.048 -0.2336,0.072 -0.362,0.072 -0.2257,0 -0.4043,-0.0614 -0.5341,-0.1835 -0.1305,-0.1227 -0.1954,-0.2779 -0.1954,-0.4656 0,-0.1235 0.0296,-0.2343 0.0889,-0.3316 0.0593,-0.0974 0.1425,-0.1715 0.249,-0.223 0.1066,-0.0515 0.2611,-0.0966 0.4622,-0.1354 0.2709,-0.0508 0.4593,-0.0988 0.5637,-0.1426l0 -0.0578c0,-0.1122 -0.0275,-0.1912 -0.0825,-0.2392 -0.0551,-0.0473 -0.1588,-0.0713 -0.3119,-0.0713 -0.1037,0 -0.1841,0.0205 -0.242,0.0614 -0.0578,0.0402 -0.1044,0.1115 -0.1404,0.2138zm0.7768 0.4713c-0.0741,0.0247 -0.1919,0.0543 -0.3535,0.0889 -0.1608,0.0346 -0.266,0.0684 -0.3161,0.1009 -0.0754,0.0543 -0.1135,0.1221 -0.1135,0.2046 0,0.0819 0.0303,0.1517 0.091,0.211 0.0606,0.0592 0.1376,0.0889 0.2314,0.0889 0.1051,0 0.2046,-0.0346 0.2999,-0.103 0.0705,-0.0523 0.1164,-0.1165 0.1382,-0.1927 0.0156,-0.0493 0.0226,-0.1439 0.0226,-0.2829l0 -0.1157z"/>
  <path class="fil1" d="M154.106 140.781l0 -3.0303 0.5807 0 0 1.0914c0.1792,-0.2039 0.3908,-0.3062 0.6364,-0.3062 0.2674,0 0.4882,0.0974 0.6639,0.2907 0.175,0.1933 0.2625,0.4713 0.2625,0.834 0,0.3746 -0.0896,0.6639 -0.2682,0.8664 -0.1785,0.2025 -0.3951,0.3034 -0.6498,0.3034 -0.1255,0 -0.249,-0.0311 -0.3711,-0.0938 -0.122,-0.0628 -0.2272,-0.1553 -0.3154,-0.278l0 0.3224 -0.539 0zm0.5764 -1.1451c0,0.2272 0.036,0.3951 0.1073,0.5045 0.1009,0.1545 0.2342,0.2314 0.4014,0.2314 0.1277,0 0.2371,-0.0551 0.3274,-0.1644 0.0903,-0.1094 0.1355,-0.2822 0.1355,-0.5179 0,-0.2505 -0.0459,-0.4318 -0.1369,-0.5426 -0.0903,-0.1107 -0.2067,-0.1665 -0.3492,-0.1665 -0.139,0 -0.2548,0.0544 -0.3472,0.1623 -0.0924,0.1087 -0.1383,0.2724 -0.1383,0.4932z"/>
  <polygon class="fil1" points="156.717,140.781 156.717,137.75 157.298,137.75 157.298,140.781 "/>
  <path class="fil1" d="M159.164 140.082l0.5792 0.0967c-0.0747,0.2123 -0.1919,0.3739 -0.3527,0.4847 -0.1602,0.1115 -0.3613,0.1665 -0.6026,0.1665 -0.3817,0 -0.6639,-0.1242 -0.8473,-0.374 -0.1447,-0.1996 -0.2173,-0.4522 -0.2173,-0.7563 0,-0.3641 0.0952,-0.6491 0.2857,-0.8551 0.1898,-0.206 0.4304,-0.3091 0.7211,-0.3091 0.3266,0 0.5842,0.108 0.7733,0.3239 0.1883,0.2159 0.2786,0.5461 0.2709,0.9913l-1.4556 0c0.0043,0.1721 0.0508,0.3062 0.1404,0.4014 0.0896,0.096 0.2018,0.144 0.3352,0.144 0.091,0 0.1672,-0.0247 0.2293,-0.0741 0.0621,-0.0501 0.1093,-0.1298 0.1404,-0.2399zm0.0331 -0.587c-0.0042,-0.1686 -0.0472,-0.2963 -0.1298,-0.3838 -0.0825,-0.0875 -0.1834,-0.1313 -0.3019,-0.1313 -0.127,0 -0.2315,0.0466 -0.314,0.139 -0.0826,0.0918 -0.1235,0.2173 -0.1221,0.3761l0.8678 0z"/>
  <path class="fil1" d="M162.387 141.672l-0.3994 0c-0.2102,-0.3182 -0.3711,-0.6491 -0.4812,-0.9927 -0.11,-0.3429 -0.1658,-0.6752 -0.1658,-0.9962 0,-0.398 0.0685,-0.7747 0.2054,-1.1303 0.1178,-0.3091 0.2681,-0.5934 0.4501,-0.8537l0.3972 0c-0.1891,0.4176 -0.3189,0.7725 -0.3902,1.0653 -0.0705,0.2928 -0.1058,0.6033 -0.1058,0.9314 0,0.2257 0.0205,0.4572 0.0628,0.6942 0.0416,0.2371 0.0995,0.4629 0.1729,0.6759 0.0479,0.1412 0.1326,0.3429 0.254,0.6061z"/>
  <path class="fil1" d="M162.839 140.781l0 -3.0303 1.2884 0c0.3238,0 0.5588,0.0275 0.7055,0.0818 0.1468,0.0543 0.2646,0.151 0.3528,0.29 0.0882,0.1397 0.1319,0.2984 0.1319,0.4776 0,0.2272 -0.067,0.4156 -0.2003,0.5638 -0.1334,0.1474 -0.3338,0.2413 -0.5998,0.2794 0.1327,0.0776 0.242,0.1623 0.3281,0.2547 0.0861,0.0924 0.2018,0.2561 0.3479,0.4917l0.3704 0.5913 -0.7317 0 -0.4424 -0.6597c-0.1573,-0.2356 -0.2645,-0.3838 -0.3224,-0.4452 -0.0579,-0.0614 -0.1192,-0.103 -0.1841,-0.1263 -0.065,-0.0226 -0.1673,-0.0339 -0.3084,-0.0339l-0.1234 0 0 1.2651 -0.6125 0zm0.6125 -1.7491l0.4522 0c0.2935,0 0.477,-0.012 0.5503,-0.0366 0.0727,-0.0247 0.1299,-0.0678 0.1715,-0.1285 0.0409,-0.0606 0.0621,-0.1361 0.0621,-0.2271 0,-0.1023 -0.0275,-0.1842 -0.0819,-0.247 -0.0543,-0.0628 -0.1312,-0.1023 -0.2307,-0.1192 -0.0494,-0.0064 -0.1982,-0.0099 -0.4466,-0.0099l-0.4769 0 0 0.7683z"/>
  <path class="fil1" d="M168.627 140.781l-0.666 0 -0.2646 -0.6886 -1.2114 0 -0.2498 0.6886 -0.6491 0 1.1804 -3.0303 0.647 0 1.2135 3.0303zm-1.1267 -1.1987l-0.4177 -1.1247 -0.4092 1.1247 0.8269 0z"/>
  <polygon class="fil1" points="168.943,140.781 168.943,137.75 169.859,137.75 170.409,139.818 170.952,137.75 171.87,137.75 171.87,140.781 171.302,140.781 171.302,138.395 170.7,140.781 170.111,140.781 169.511,138.395 169.511,140.781 "/>
  <path class="fil1" d="M172.312 141.672c0.1143,-0.2455 0.1955,-0.4339 0.242,-0.5644 0.0466,-0.1313 0.0903,-0.2823 0.1298,-0.453 0.0403,-0.1707 0.0699,-0.333 0.0889,-0.4868 0.0198,-0.1531 0.029,-0.3112 0.029,-0.472 0,-0.3281 -0.0346,-0.6386 -0.1052,-0.9314 -0.0705,-0.2928 -0.1996,-0.6477 -0.3887,-1.0653l0.3951 0c0.2081,0.2963 0.3697,0.6103 0.4847,0.9426 0.115,0.3316 0.1729,0.6688 0.1729,1.0103 0,0.2886 -0.0459,0.5969 -0.1369,0.9264 -0.103,0.369 -0.2738,0.7338 -0.5101,1.0936l-0.4015 0z"/>
  <path class="fil1" d="M105.699 138.189l0 -3.0303 1.2884 0c0.3238,0 0.5588,0.0275 0.7055,0.0818 0.1468,0.0543 0.2646,0.151 0.3528,0.29 0.0882,0.1397 0.1319,0.2984 0.1319,0.4776 0,0.2272 -0.067,0.4156 -0.2003,0.5638 -0.1334,0.1474 -0.3338,0.2413 -0.5998,0.2794 0.1327,0.0776 0.242,0.1623 0.3281,0.2547 0.0861,0.0924 0.2018,0.2561 0.3479,0.4917l0.3704 0.5913 -0.7317 0 -0.4424 -0.6597c-0.1573,-0.2356 -0.2645,-0.3838 -0.3224,-0.4452 -0.0579,-0.0614 -0.1192,-0.103 -0.1841,-0.1263 -0.065,-0.0226 -0.1673,-0.0339 -0.3084,-0.0339l-0.1234 0 0 1.2651 -0.6125 0zm0.6125 -1.7491l0.4522 0c0.2935,0 0.477,-0.012 0.5503,-0.0366 0.0727,-0.0247 0.1299,-0.0678 0.1715,-0.1285 0.0409,-0.0606 0.0621,-0.1361 0.0621,-0.2271 0,-0.1023 -0.0275,-0.1842 -0.0819,-0.247 -0.0543,-0.0628 -0.1312,-0.1023 -0.2307,-0.1192 -0.0494,-0.0064 -0.1982,-0.0099 -0.4466,-0.0099l-0.4769 0 0 0.7683z"/>
  <polygon class="fil1" points="108.447,138.189 109.482,136.607 108.544,135.158 109.259,135.158 109.867,136.132 110.462,135.158 111.171,135.158 110.228,136.63 111.264,138.189 110.526,138.189 109.854,137.141 109.18,138.189 "/>
  <polygon class="fil1" points="112.75,138.189 112.75,135.158 113.331,135.158 113.331,138.189 "/>
  <path class="fil1" d="M113.792 137.06c0,-0.1926 0.048,-0.3796 0.1426,-0.5602 0.0952,-0.1799 0.23,-0.3182 0.4042,-0.4127 0.1743,-0.0953 0.369,-0.1433 0.5842,-0.1433 0.3316,0 0.604,0.108 0.8164,0.3239 0.2123,0.2159 0.3182,0.4882 0.3182,0.8177 0,0.3316 -0.1073,0.6068 -0.3211,0.8255 -0.2145,0.2187 -0.484,0.3274 -0.8092,0.3274 -0.2018,0 -0.393,-0.0452 -0.5758,-0.1362 -0.1827,-0.091 -0.3217,-0.2243 -0.4169,-0.4 -0.0946,-0.1757 -0.1426,-0.3895 -0.1426,-0.6421zm0.5955 0.0311c0,0.218 0.0515,0.3845 0.1552,0.5002 0.103,0.1157 0.2308,0.1736 0.3824,0.1736 0.1517,0 0.2787,-0.0579 0.381,-0.1736 0.1031,-0.1157 0.1546,-0.2836 0.1546,-0.5045 0,-0.2145 -0.0515,-0.3803 -0.1546,-0.496 -0.1023,-0.1157 -0.2293,-0.1735 -0.381,-0.1735 -0.1516,0 -0.2794,0.0578 -0.3824,0.1735 -0.1037,0.1157 -0.1552,0.283 -0.1552,0.5003z"/>
  <path class="fil1" d="M116.459 138.333l0.6632 0.0805c0.0113,0.0776 0.0367,0.1305 0.0762,0.1594 0.055,0.0417 0.1425,0.0621 0.2603,0.0621 0.1517,0 0.2653,-0.0226 0.3415,-0.0684 0.0508,-0.0304 0.0896,-0.079 0.1157,-0.1468 0.0177,-0.048 0.0268,-0.1369 0.0268,-0.2667l0 -0.3203c-0.1735,0.2371 -0.3929,0.3556 -0.6575,0.3556 -0.295,0 -0.5285,-0.1249 -0.7006,-0.3739 -0.1348,-0.1976 -0.2025,-0.4424 -0.2025,-0.7359 0,-0.3683 0.0889,-0.6491 0.266,-0.8439 0.1771,-0.194 0.3972,-0.2914 0.6604,-0.2914 0.2709,0 0.4952,0.1193 0.6716,0.3578l0 -0.3077 0.5433 0 0 1.9699c0,0.259 -0.0212,0.4523 -0.0642,0.5807 -0.0423,0.1284 -0.1023,0.2286 -0.1792,0.302 -0.0776,0.0726 -0.1806,0.1298 -0.309,0.1714 -0.1292,0.0409 -0.2921,0.0621 -0.489,0.0621 -0.3725,0 -0.6364,-0.0642 -0.7916,-0.1912 -0.1559,-0.1277 -0.2335,-0.2893 -0.2335,-0.4847 0,-0.0198 0.0007,-0.043 0.0021,-0.0706zm0.5185 -1.2876c0,0.2328 0.0452,0.4036 0.1355,0.5115 0.0903,0.108 0.2011,0.1623 0.3337,0.1623 0.1419,0 0.2618,-0.0557 0.3599,-0.1665 0.0973,-0.1108 0.1467,-0.2752 0.1467,-0.4932 0,-0.2272 -0.0472,-0.3958 -0.1411,-0.5059 -0.0931,-0.1107 -0.2116,-0.1658 -0.3549,-0.1658 -0.1397,0 -0.254,0.0544 -0.3443,0.1623 -0.0903,0.1087 -0.1355,0.2731 -0.1355,0.4953z"/>
  <path class="fil1" d="M119.098 135.696l0 -0.5376 0.5807 0 0 0.5376 -0.5807 0zm0 2.4927l0 -2.195 0.5807 0 0 2.195 -0.5807 0z"/>
  <path class="fil1" d="M122.189 136.643l-0.5729 0.1031c-0.019,-0.1143 -0.0628,-0.2004 -0.1312,-0.2583 -0.0684,-0.0578 -0.1566,-0.0868 -0.2653,-0.0868 -0.1453,0 -0.2603,0.0501 -0.3464,0.1496 -0.0861,0.1002 -0.1291,0.2674 -0.1291,0.5017 0,0.2603 0.0437,0.4445 0.1312,0.5517 0.0875,0.1072 0.2046,0.1609 0.3521,0.1609 0.1108,0 0.2004,-0.0311 0.2709,-0.0939 0.0706,-0.0628 0.12,-0.1707 0.1489,-0.3231l0.5708 0.0966c-0.0593,0.2618 -0.1736,0.4601 -0.3415,0.5934 -0.1679,0.1341 -0.393,0.2004 -0.6759,0.2004 -0.3211,0 -0.5772,-0.1009 -0.7677,-0.3034 -0.1912,-0.2025 -0.2864,-0.4833 -0.2864,-0.8417 0,-0.362 0.0959,-0.6442 0.2871,-0.846 0.192,-0.2025 0.4509,-0.3034 0.7776,-0.3034 0.2674,0 0.4797,0.0579 0.6378,0.1729 0.1573,0.115 0.2709,0.2907 0.34,0.5263z"/>
  <polygon class="fil1" points="106.615,89.9286 106.615,87.4112 105.716,87.4112 105.716,86.8983 108.124,86.8983 108.124,87.4112 107.227,87.4112 107.227,89.9286 "/>
  <polygon class="fil1" points="108.211,89.9286 109.247,88.3475 108.308,86.8983 109.023,86.8983 109.631,87.8719 110.226,86.8983 110.935,86.8983 109.992,88.37 111.028,89.9286 110.29,89.9286 109.619,88.8809 108.945,89.9286 "/>
  <polygon class="fil1" points="112.515,89.9286 112.515,86.8983 113.096,86.8983 113.096,89.9286 "/>
  <path class="fil1" d="M113.556 88.7997c0,-0.1926 0.048,-0.3796 0.1426,-0.5602 0.0952,-0.1799 0.23,-0.3182 0.4042,-0.4127 0.1743,-0.0953 0.369,-0.1433 0.5842,-0.1433 0.3316,0 0.604,0.108 0.8164,0.3239 0.2123,0.2159 0.3182,0.4882 0.3182,0.8177 0,0.3316 -0.1073,0.6068 -0.3211,0.8255 -0.2145,0.2187 -0.484,0.3274 -0.8092,0.3274 -0.2018,0 -0.393,-0.0452 -0.5758,-0.1362 -0.1827,-0.091 -0.3217,-0.2243 -0.4169,-0.4 -0.0946,-0.1757 -0.1426,-0.3895 -0.1426,-0.6421zm0.5955 0.0311c0,0.218 0.0515,0.3845 0.1552,0.5002 0.103,0.1157 0.2308,0.1736 0.3824,0.1736 0.1517,0 0.2787,-0.0579 0.381,-0.1736 0.1031,-0.1157 0.1546,-0.2836 0.1546,-0.5045 0,-0.2145 -0.0515,-0.3803 -0.1546,-0.496 -0.1023,-0.1157 -0.2293,-0.1735 -0.381,-0.1735 -0.1516,0 -0.2794,0.0578 -0.3824,0.1735 -0.1037,0.1157 -0.1552,0.283 -0.1552,0.5003z"/>
  <path class="fil1" d="M116.223 90.0732l0.6632 0.0805c0.0113,0.0776 0.0367,0.1305 0.0762,0.1594 0.055,0.0417 0.1425,0.0621 0.2603,0.0621 0.1517,0 0.2653,-0.0226 0.3415,-0.0684 0.0508,-0.0304 0.0896,-0.079 0.1157,-0.1468 0.0177,-0.048 0.0268,-0.1369 0.0268,-0.2667l0 -0.3203c-0.1735,0.2371 -0.3929,0.3556 -0.6575,0.3556 -0.295,0 -0.5285,-0.1249 -0.7006,-0.3739 -0.1348,-0.1976 -0.2025,-0.4424 -0.2025,-0.7359 0,-0.3683 0.0889,-0.6491 0.266,-0.8439 0.1771,-0.194 0.3972,-0.2914 0.6604,-0.2914 0.2709,0 0.4952,0.1193 0.6716,0.3578l0 -0.3077 0.5433 0 0 1.9699c0,0.259 -0.0212,0.4523 -0.0642,0.5807 -0.0423,0.1284 -0.1023,0.2286 -0.1792,0.302 -0.0776,0.0726 -0.1806,0.1298 -0.309,0.1714 -0.1292,0.0409 -0.2921,0.0621 -0.489,0.0621 -0.3725,0 -0.6364,-0.0642 -0.7916,-0.1912 -0.1559,-0.1277 -0.2335,-0.2893 -0.2335,-0.4847 0,-0.0198 0.0007,-0.043 0.0021,-0.0706zm0.5185 -1.2876c0,0.2328 0.0452,0.4036 0.1355,0.5115 0.0903,0.108 0.2011,0.1623 0.3337,0.1623 0.1419,0 0.2618,-0.0557 0.3599,-0.1665 0.0973,-0.1108 0.1467,-0.2752 0.1467,-0.4932 0,-0.2272 -0.0472,-0.3958 -0.1411,-0.5059 -0.0931,-0.1107 -0.2116,-0.1658 -0.3549,-0.1658 -0.1397,0 -0.254,0.0544 -0.3443,0.1623 -0.0903,0.1087 -0.1355,0.2731 -0.1355,0.4953z"/>
  <path class="fil1" d="M118.863 87.4359l0 -0.5376 0.5807 0 0 0.5376 -0.5807 0zm0 2.4927l0 -2.195 0.5807 0 0 2.195 -0.5807 0z"/>
  <path class="fil1" d="M121.953 88.3827l-0.5729 0.1031c-0.019,-0.1143 -0.0628,-0.2004 -0.1312,-0.2583 -0.0684,-0.0578 -0.1566,-0.0868 -0.2653,-0.0868 -0.1453,0 -0.2603,0.0501 -0.3464,0.1496 -0.0861,0.1002 -0.1291,0.2674 -0.1291,0.5017 0,0.2603 0.0437,0.4445 0.1312,0.5517 0.0875,0.1072 0.2046,0.1609 0.3521,0.1609 0.1108,0 0.2004,-0.0311 0.2709,-0.0939 0.0706,-0.0628 0.12,-0.1707 0.1489,-0.3231l0.5708 0.0966c-0.0593,0.2618 -0.1736,0.4601 -0.3415,0.5934 -0.1679,0.1341 -0.393,0.2004 -0.6759,0.2004 -0.3211,0 -0.5772,-0.1009 -0.7677,-0.3034 -0.1912,-0.2025 -0.2864,-0.4833 -0.2864,-0.8417 0,-0.362 0.0959,-0.6442 0.2871,-0.846 0.192,-0.2025 0.4509,-0.3034 0.7776,-0.3034 0.2674,0 0.4797,0.0579 0.6378,0.1729 0.1573,0.115 0.2709,0.2907 0.34,0.5263z"/>
  <rect class="fil0 str0" x="150.328" y="103.252" width="26.058" height="19.392"/>
  <polygon class="fil1" points="155.308,114.766 154.585,111.736 155.211,111.736 155.668,113.817 156.222,111.736 156.949,111.736 157.481,113.852 157.946,111.736 158.561,111.736 157.826,114.766 157.176,114.766 156.573,112.501 155.971,114.766 "/>
  <path class="fil1" d="M158.875 111.736l1.2115 0c0.2399,0 0.4191,0.0098 0.5369,0.0303 0.1178,0.0198 0.2229,0.0614 0.3161,0.1249 0.0931,0.0635 0.17,0.1474 0.2321,0.2533 0.0621,0.1051 0.0931,0.2236 0.0931,0.3542 0,0.1418 -0.0381,0.2723 -0.1143,0.3908 -0.0769,0.1186 -0.1806,0.2075 -0.3111,0.2667 0.1841,0.0537 0.3267,0.1454 0.4254,0.2745 0.0995,0.1298 0.1489,0.2822 0.1489,0.4572 0,0.1376 -0.0317,0.2716 -0.0959,0.4022 -0.0643,0.1298 -0.1517,0.2342 -0.2625,0.3118 -0.1108,0.0776 -0.2477,0.1256 -0.4106,0.1439 -0.1016,0.0106 -0.3479,0.0177 -0.738,0.0205l-1.0316 0 0 -3.0303zm0.6125 0.5044l0 0.7006 0.4007 0c0.2385,0 0.3866,-0.0035 0.4445,-0.0105 0.1044,-0.012 0.187,-0.048 0.2469,-0.108 0.06,-0.06 0.0897,-0.139 0.0897,-0.2371 0,-0.0938 -0.0254,-0.17 -0.077,-0.2286 -0.0522,-0.0585 -0.1291,-0.0938 -0.2307,-0.1058 -0.0606,-0.007 -0.2349,-0.0106 -0.5228,-0.0106l-0.3513 0zm0 1.2051l0 0.81 0.5658 0c0.2208,0 0.3605,-0.0057 0.4198,-0.0184 0.091,-0.0162 0.1651,-0.0571 0.2223,-0.1206 0.0571,-0.0642 0.086,-0.1503 0.086,-0.2575 0,-0.0911 -0.0225,-0.168 -0.0663,-0.2315 -0.0444,-0.0635 -0.1079,-0.11 -0.1912,-0.139 -0.0832,-0.0289 -0.2646,-0.043 -0.5426,-0.043l-0.4938 0z"/>
  <path class="fil1" d="M162.898 114.14l0.5828 -0.0889c0.0247,0.1129 0.0748,0.1989 0.151,0.2575 0.0754,0.0586 0.1813,0.0882 0.3182,0.0882 0.1502,0 0.2631,-0.0275 0.3386,-0.0833 0.0515,-0.0381 0.0769,-0.0903 0.0769,-0.1545 0,-0.0444 -0.0141,-0.0811 -0.0416,-0.11 -0.0289,-0.0276 -0.0938,-0.053 -0.194,-0.0762 -0.4685,-0.1031 -0.7655,-0.1976 -0.8911,-0.283 -0.1736,-0.1185 -0.2604,-0.2836 -0.2604,-0.4946 0,-0.1898 0.0748,-0.3499 0.2251,-0.479 0.1503,-0.1298 0.3831,-0.1948 0.6985,-0.1948 0.3005,0 0.5242,0.0494 0.6703,0.1468 0.146,0.0981 0.2462,0.2427 0.3012,0.4346l-0.5475 0.1009c-0.0233,-0.0854 -0.0677,-0.151 -0.1333,-0.1961 -0.0656,-0.0459 -0.1588,-0.0685 -0.2801,-0.0685 -0.1531,0 -0.2625,0.0212 -0.3288,0.0642 -0.0438,0.0304 -0.0656,0.0699 -0.0656,0.1179 0,0.0416 0.019,0.0762 0.0578,0.1051 0.0522,0.0388 0.2328,0.0931 0.5426,0.1637 0.309,0.0698 0.5249,0.1559 0.6477,0.2582 0.1213,0.1037 0.182,0.2477 0.182,0.4318 0,0.2011 -0.0839,0.3746 -0.2526,0.5193 -0.1679,0.1446 -0.4163,0.2166 -0.7457,0.2166 -0.2992,0 -0.5356,-0.0607 -0.7105,-0.182 -0.1743,-0.1207 -0.2879,-0.2858 -0.3415,-0.4939z"/>
  <polygon class="fil1" points="165.457,114.766 165.457,111.736 166.038,111.736 166.038,114.766 "/>
  <path class="fil1" d="M167.068 113.241l-0.527 -0.0952c0.0592,-0.2124 0.1608,-0.3691 0.3055,-0.4714 0.1453,-0.1016 0.3598,-0.1531 0.6448,-0.1531 0.2597,0 0.4523,0.0311 0.5793,0.0925 0.1263,0.0613 0.2159,0.139 0.2674,0.2335 0.0515,0.0945 0.0776,0.2674 0.0776,0.52l-0.0063 0.678c0,0.1926 0.0091,0.3352 0.0282,0.4269 0.0183,0.091 0.0536,0.1898 0.1044,0.2942l-0.575 0c-0.0148,-0.0388 -0.0339,-0.096 -0.0558,-0.1714 -0.0091,-0.0346 -0.0162,-0.0572 -0.0204,-0.0685 -0.0995,0.0967 -0.2053,0.1686 -0.3182,0.2173 -0.1129,0.048 -0.2336,0.072 -0.362,0.072 -0.2257,0 -0.4043,-0.0614 -0.5341,-0.1835 -0.1305,-0.1227 -0.1954,-0.2779 -0.1954,-0.4656 0,-0.1235 0.0296,-0.2343 0.0889,-0.3316 0.0593,-0.0974 0.1425,-0.1715 0.249,-0.223 0.1066,-0.0515 0.2611,-0.0966 0.4622,-0.1354 0.2709,-0.0508 0.4593,-0.0988 0.5637,-0.1426l0 -0.0578c0,-0.1122 -0.0275,-0.1912 -0.0825,-0.2392 -0.0551,-0.0473 -0.1588,-0.0713 -0.3119,-0.0713 -0.1037,0 -0.1841,0.0205 -0.242,0.0614 -0.0578,0.0402 -0.1044,0.1115 -0.1404,0.2138zm0.7768 0.4713c-0.0741,0.0247 -0.1919,0.0543 -0.3535,0.0889 -0.1608,0.0346 -0.266,0.0684 -0.3161,0.1009 -0.0754,0.0543 -0.1135,0.1221 -0.1135,0.2046 0,0.0819 0.0303,0.1517 0.091,0.211 0.0606,0.0592 0.1376,0.0889 0.2314,0.0889 0.1051,0 0.2046,-0.0346 0.2999,-0.103 0.0705,-0.0523 0.1164,-0.1165 0.1382,-0.1927 0.0156,-0.0493 0.0226,-0.1439 0.0226,-0.2829l0 -0.1157z"/>
  <path class="fil1" d="M169.591 114.766l-0.8847 -2.195 0.6096 0 0.4134 1.1204 0.12 0.374c0.0317,-0.0953 0.0522,-0.1581 0.0599,-0.1884 0.0198,-0.0621 0.0403,-0.1242 0.0621,-0.1856l0.4177 -1.1204 0.5976 0 -0.8728 2.195 -0.5228 0z"/>
  <path class="fil1" d="M172.613 114.068l0.5792 0.0967c-0.0747,0.2123 -0.1919,0.3739 -0.3527,0.4847 -0.1602,0.1115 -0.3613,0.1665 -0.6026,0.1665 -0.3817,0 -0.6639,-0.1242 -0.8473,-0.374 -0.1447,-0.1996 -0.2173,-0.4522 -0.2173,-0.7563 0,-0.3641 0.0952,-0.6491 0.2857,-0.8551 0.1898,-0.206 0.4304,-0.3091 0.7211,-0.3091 0.3266,0 0.5842,0.108 0.7733,0.3239 0.1883,0.2159 0.2786,0.5461 0.2709,0.9913l-1.4556 0c0.0043,0.1721 0.0508,0.3062 0.1404,0.4014 0.0896,0.096 0.2018,0.144 0.3352,0.144 0.091,0 0.1672,-0.0247 0.2293,-0.0741 0.0621,-0.0501 0.1093,-0.1298 0.1404,-0.2399zm0.0331 -0.587c-0.0042,-0.1686 -0.0472,-0.2963 -0.1298,-0.3838 -0.0825,-0.0875 -0.1834,-0.1313 -0.3019,-0.1313 -0.127,0 -0.2315,0.0466 -0.314,0.139 -0.0826,0.0918 -0.1235,0.2173 -0.1221,0.3761l0.8678 0z"/>
  <g>
   <path class="fil2" d="M179.739 111.104l0 3.6888 -3.353 -1.8444 3.353 -1.8444zm12.8037 2.1972l-13.0944 0 0 -0.7056 13.0944 0 0 0.7056zm-0.2907 -2.1972l3.353 1.8444 -3.353 1.8444 0 -3.6888z"/>
  </g>
  <path class="fil1" d="M180.242 111.07l-0.8043 -3.0303 0.4113 0 0.4615 1.9861c0.0494,0.2081 0.0917,0.4148 0.1277,0.6202 0.0776,-0.3239 0.1227,-0.5101 0.1369,-0.5602l0.5764 -2.0461 0.484 0 0.4339 1.5338c0.1087,0.3803 0.187,0.738 0.2357,1.0725 0.0381,-0.1912 0.0889,-0.4114 0.1509,-0.659l0.4749 -1.9473 0.4036 0 -0.8312 3.0303 -0.3866 0 -0.6385 -2.3086c-0.0537,-0.1933 -0.0854,-0.3118 -0.0953,-0.3556 -0.0317,0.139 -0.0614,0.2576 -0.0889,0.3556l-0.6427 2.3086 -0.4093 0z"/>
  <path class="fil1" d="M183.691 111.07l0 -3.0303 1.1374 0c0.2314,0 0.417,0.031 0.5567,0.0917 0.1404,0.0614 0.2497,0.1559 0.3287,0.2836 0.0791,0.127 0.1193,0.2604 0.1193,0.4001 0,0.1291 -0.0353,0.2511 -0.1058,0.3654 -0.0699,0.1143 -0.1764,0.2068 -0.3182,0.2773 0.1834,0.0536 0.3238,0.1454 0.4226,0.2745 0.0988,0.1298 0.1481,0.2829 0.1481,0.4593 0,0.1418 -0.0303,0.2737 -0.0903,0.3958 -0.0599,0.1221 -0.134,0.2159 -0.2222,0.2822 -0.0882,0.0663 -0.199,0.1157 -0.3316,0.1496 -0.1327,0.0339 -0.2957,0.0508 -0.489,0.0508l-1.1557 0zm0.4015 -1.7568l0.6555 0c0.177,0 0.3047,-0.012 0.3824,-0.0353 0.1016,-0.0303 0.1785,-0.0804 0.23,-0.151 0.0515,-0.0705 0.0776,-0.1587 0.0776,-0.2646 0,-0.1002 -0.024,-0.1891 -0.072,-0.2653 -0.0487,-0.0769 -0.1178,-0.1291 -0.2067,-0.1573 -0.0896,-0.0282 -0.2434,-0.0423 -0.4614,-0.0423l-0.6054 0 0 0.9158zm0 1.3991l0.7542 0c0.1298,0 0.2209,-0.005 0.2731,-0.0141 0.0924,-0.017 0.1693,-0.0445 0.2314,-0.0833 0.0621,-0.0381 0.1129,-0.0945 0.1531,-0.1679 0.0395,-0.0741 0.06,-0.1587 0.06,-0.2554 0,-0.1129 -0.029,-0.211 -0.0868,-0.2949 -0.0579,-0.0833 -0.1383,-0.1418 -0.2413,-0.1757 -0.1023,-0.0332 -0.2505,-0.0501 -0.4431,-0.0501l-0.7006 0 0 1.0414z"/>
  <path class="fil1" d="M188.004 111.07l-0.345 0 0 -3.0303 0.3718 0 0 1.0809c0.1573,-0.1969 0.3577,-0.2957 0.6011,-0.2957 0.1355,0 0.2632,0.0276 0.3839,0.0819 0.1206,0.0543 0.2194,0.1312 0.2977,0.2293 0.0776,0.0988 0.139,0.2173 0.1827,0.357 0.0445,0.139 0.0664,0.2879 0.0664,0.4459 0,0.3768 -0.0932,0.6675 -0.2794,0.8728 -0.1856,0.2053 -0.4093,0.3076 -0.6696,0.3076 -0.2589,0 -0.4621,-0.108 -0.6096,-0.3246l0 0.2752zm-0.0042 -1.1141c0,0.2632 0.0359,0.453 0.1072,0.5701 0.1171,0.1919 0.2759,0.2879 0.4755,0.2879 0.163,0 0.3034,-0.0706 0.422,-0.2124 0.1185,-0.1411 0.1778,-0.3513 0.1778,-0.6315 0,-0.2864 -0.0572,-0.4981 -0.1708,-0.6342 -0.1136,-0.1362 -0.2512,-0.2047 -0.412,-0.2047 -0.163,0 -0.3034,0.0706 -0.4219,0.2117 -0.1186,0.1411 -0.1778,0.3457 -0.1778,0.6131z"/>
  <path class="fil1" d="M191.454 111.07l0 -0.3224c-0.1714,0.2483 -0.4036,0.3718 -0.6971,0.3718 -0.1291,0 -0.2504,-0.0247 -0.3626,-0.0741 -0.1122,-0.0494 -0.1955,-0.1122 -0.2498,-0.187 -0.055,-0.0755 -0.0931,-0.1672 -0.115,-0.2758 -0.0148,-0.0734 -0.0226,-0.1891 -0.0226,-0.3479l0 -1.3596 0.3719 0 0 1.2171c0,0.1947 0.0077,0.3253 0.0225,0.393 0.024,0.0981 0.0734,0.1743 0.1489,0.2307 0.0762,0.0558 0.17,0.0833 0.2815,0.0833 0.1115,0 0.2159,-0.0283 0.314,-0.0854 0.0981,-0.0572 0.1672,-0.1355 0.2074,-0.2335 0.0409,-0.0988 0.0614,-0.242 0.0614,-0.429l0 -1.1762 0.3718 0 0 2.195 -0.3323 0z"/>
  <path class="fil1" d="M192.221 110.414l0.3676 -0.0578c0.0205,0.1474 0.0783,0.2603 0.1729,0.3394 0.0938,0.0783 0.2258,0.1178 0.3958,0.1178 0.1707,0 0.2977,-0.0353 0.3803,-0.1044 0.0825,-0.0699 0.1242,-0.1517 0.1242,-0.2449 0,-0.0846 -0.0367,-0.1502 -0.1101,-0.1989 -0.0508,-0.0332 -0.1778,-0.0748 -0.3803,-0.1256 -0.2723,-0.0692 -0.4621,-0.1284 -0.5673,-0.1792 -0.1051,-0.0501 -0.1855,-0.12 -0.2398,-0.2089 -0.0544,-0.0889 -0.0819,-0.1869 -0.0819,-0.2942 0,-0.0981 0.0226,-0.1884 0.0677,-0.2716 0.0445,-0.084 0.1059,-0.1531 0.1828,-0.2082 0.0578,-0.0423 0.1369,-0.079 0.2363,-0.1086 0.1002,-0.0296 0.2075,-0.0445 0.3218,-0.0445 0.1721,0 0.3231,0.0254 0.4536,0.0748 0.1306,0.0494 0.2265,0.1164 0.2886,0.2011 0.0621,0.0854 0.1044,0.1983 0.1277,0.3401l-0.3633 0.0501c-0.017,-0.1129 -0.065,-0.2011 -0.144,-0.2646 -0.079,-0.0635 -0.1912,-0.0953 -0.3358,-0.0953 -0.1708,0 -0.2928,0.0283 -0.3655,0.0847 -0.0734,0.0565 -0.1101,0.1228 -0.1101,0.1983 0,0.0487 0.0156,0.0917 0.0459,0.1305 0.0303,0.0402 0.0776,0.0727 0.1425,0.0995 0.0374,0.0134 0.1468,0.0451 0.3288,0.0945 0.2632,0.0706 0.4466,0.1277 0.5503,0.1729 0.1045,0.0444 0.1863,0.1101 0.2456,0.1954 0.0592,0.0854 0.0889,0.1912 0.0889,0.3182 0,0.1242 -0.0367,0.2406 -0.1087,0.3507 -0.0727,0.1093 -0.1771,0.194 -0.3133,0.254 -0.1361,0.06 -0.2906,0.0896 -0.4628,0.0896 -0.2857,0 -0.503,-0.0593 -0.6526,-0.1778 -0.1496,-0.1185 -0.2449,-0.2942 -0.2858,-0.5271z"/>
  <g>
   <path class="fil1" d="M161.064 101.562l1.859 0 -0.9295 1.6898 -0.9295 -1.6898zm1.0177 -3.7387l0 3.8852 -0.1764 0 0 -3.8852 0.1764 0zm-1.0177 0.1465l0.9295 -1.6898 0.9295 1.6898 -1.859 0z"/>
  </g>
  <g>
   <path class="fil1" d="M163.286 124.334l-1.859 0 0.9295 -1.6898 0.9295 1.6898zm-1.0177 3.8264l0 -3.9729 0.1764 0 0 3.9729 -0.1764 0zm1.0177 -0.1465l-0.9295 1.6898 -0.9295 -1.6898 1.859 0z"/>
  </g>
  <g>
   <path class="fil1" d="M144.066 138.048l0 -1.859 1.6898 0.9295 -1.6898 0.9295zm-12.4118 -1.0177l12.5583 0 0 0.1764 -12.5583 0 0 -0.1764zm0.1465 1.0177l-1.6898 -0.9295 1.6898 -0.9295 0 1.859z"/>
  </g>
  <g>
   <path class="fil1" d="M148.638 113.878l0 -1.859 1.6898 0.9295 -1.6898 0.9295zm-14.4451 -1.0177l14.5916 0 0 0.1764 -14.5916 0 0 -0.1764zm0.1465 1.0177l-1.6898 -0.9295 1.6898 -0.9295 0 1.859z"/>
  </g>
  <g>
   <path class="fil1" d="M144.066 89.7885l0 -1.859 1.6898 0.9295 -1.6898 0.9295zm-12.4118 -1.0177l12.5583 0 0 0.1764 -12.5583 0 0 -0.1764zm0.1465 1.0177l-1.6898 -0.9295 1.6898 -0.9295 0 1.859z"/>
  </g>
  <g>
   <path class="fil1" d="M113.099 97.9702l-1.859 0 0.9295 -1.6898 0.9295 1.6898zm-1.0174 2.8013l0 -2.9478 0.1758 0 0 2.9478 -0.1758 0zm1.0174 -0.1465l-0.9295 1.6898 -0.9295 -1.6898 1.859 0z"/>
  </g>
  <g>
   <path class="fil1" d="M112.231 125.898l-1.859 0 0.9295 -1.6898 0.9295 1.6898zm-1.0177 2.2562l0 -2.4027 0.1764 0 0 2.4027 -0.1764 0zm1.0177 -0.1465l-0.9295 1.6898 -0.9295 -1.6898 1.859 0z"/>
  </g>
  <g>
   <path class="fil2" d="M94.4337 137.472l-11.01 0 0 -0.7056 11.01 0 0 0.7056zm-0.2907 -2.1972l3.353 1.8444 -3.353 1.8444 0 -3.6888z"/>
  </g>
  <g>
   <path class="fil2" d="M86.4751 88.2227l11.01 0 0 0.7056 -11.01 0 0 -0.7056zm0.2907 2.1972l-3.353 -1.8444 3.353 -1.8444 0 3.6888z"/>
  </g>
  <g>
   <path class="fil2" d="M86.7658 68.9511l0 3.6888 -3.353 -1.8444 3.353 -1.8444zm10.7193 2.1972l0 0 -11.01 0 0 -0.7056 11.01 0 0 0.7056zm0 -0.7056l0 0 0 0 0 0zm6.2322 0.3528l-0.3528 0.3528 -5.8794 0 0 -0.7056 5.8794 0 0.3528 0.3528zm-0.3528 -0.3528l0.3528 0 0 0.3528 -0.3528 -0.3528zm-0.3528 10.9949l0 -10.6421 0.7056 0 0 10.6421 -0.7056 0z"/>
  </g>
  <path class="fil1" d="M82.9565 81.8651l-0.8043 -3.0303 0.4113 0 0.4615 1.9861c0.0494,0.2081 0.0917,0.4148 0.1277,0.6202 0.0776,-0.3239 0.1227,-0.5101 0.1369,-0.5602l0.5764 -2.0461 0.484 0 0.4339 1.5338c0.1087,0.3803 0.187,0.738 0.2357,1.0725 0.0381,-0.1912 0.0889,-0.4114 0.1509,-0.659l0.4749 -1.9473 0.4036 0 -0.8312 3.0303 -0.3866 0 -0.6385 -2.3086c-0.0537,-0.1933 -0.0854,-0.3118 -0.0953,-0.3556 -0.0317,0.139 -0.0614,0.2576 -0.0889,0.3556l-0.6427 2.3086 -0.4093 0z"/>
  <path class="fil1" d="M86.4292 81.8651l0 -3.0303 1.3434 0c0.2702,0 0.4755,0.0275 0.6159,0.0818 0.1404,0.0543 0.2526,0.1503 0.3373,0.2879 0.0839,0.1383 0.1256,0.2907 0.1256,0.4572 0,0.2152 -0.0692,0.3958 -0.2089,0.5432 -0.139,0.1475 -0.3542,0.2413 -0.6448,0.2816 0.1065,0.0508 0.1869,0.1008 0.242,0.1509 0.1171,0.1073 0.2279,0.242 0.333,0.4029l0.527 0.8248 -0.5044 0 -0.4008 -0.6308c-0.1171,-0.1813 -0.2138,-0.321 -0.29,-0.4169 -0.0755,-0.0967 -0.1432,-0.1644 -0.2032,-0.2025 -0.0599,-0.0388 -0.1206,-0.0657 -0.1827,-0.0812 -0.0459,-0.0091 -0.12,-0.0141 -0.2237,-0.0141l-0.4649 0 0 1.3455 -0.4008 0zm0.4008 -1.6926l0.8622 0c0.1827,0 0.3266,-0.0191 0.4296,-0.0572 0.1037,-0.0381 0.1821,-0.0987 0.2357,-0.182 0.0536,-0.0833 0.0804,-0.1736 0.0804,-0.2716 0,-0.1433 -0.0515,-0.2611 -0.1559,-0.3535 -0.1037,-0.0924 -0.2681,-0.1383 -0.4932,-0.1383l-0.9588 0 0 1.0026z"/>
  <polygon class="fil1" points="89.5004,81.8651 89.5004,78.8348 91.5451,78.8348 91.5451,79.1925 89.9019,79.1925 89.9019,80.1309 91.3236,80.1309 91.3236,80.4886 89.9019,80.4886 89.9019,81.8651 "/>
  <path class="fil1" d="M82.2312 85.9389l0.3676 -0.0578c0.0205,0.1474 0.0783,0.2603 0.1729,0.3394 0.0938,0.0783 0.2258,0.1178 0.3958,0.1178 0.1707,0 0.2977,-0.0353 0.3803,-0.1044 0.0825,-0.0699 0.1242,-0.1517 0.1242,-0.2449 0,-0.0846 -0.0367,-0.1502 -0.1101,-0.1989 -0.0508,-0.0332 -0.1778,-0.0748 -0.3803,-0.1256 -0.2723,-0.0692 -0.4621,-0.1284 -0.5673,-0.1792 -0.1051,-0.0501 -0.1855,-0.12 -0.2398,-0.2089 -0.0544,-0.0889 -0.0819,-0.1869 -0.0819,-0.2942 0,-0.0981 0.0226,-0.1884 0.0677,-0.2716 0.0445,-0.084 0.1059,-0.1531 0.1828,-0.2082 0.0578,-0.0423 0.1369,-0.079 0.2363,-0.1086 0.1002,-0.0296 0.2075,-0.0445 0.3218,-0.0445 0.1721,0 0.3231,0.0254 0.4536,0.0748 0.1306,0.0494 0.2265,0.1164 0.2886,0.2011 0.0621,0.0854 0.1044,0.1983 0.1277,0.3401l-0.3633 0.0501c-0.017,-0.1129 -0.065,-0.2011 -0.144,-0.2646 -0.079,-0.0635 -0.1912,-0.0953 -0.3358,-0.0953 -0.1708,0 -0.2928,0.0283 -0.3655,0.0847 -0.0734,0.0565 -0.1101,0.1228 -0.1101,0.1983 0,0.0487 0.0156,0.0917 0.0459,0.1305 0.0303,0.0402 0.0776,0.0727 0.1425,0.0995 0.0374,0.0134 0.1468,0.0451 0.3288,0.0945 0.2632,0.0706 0.4466,0.1277 0.5503,0.1729 0.1045,0.0444 0.1863,0.1101 0.2456,0.1954 0.0592,0.0854 0.0889,0.1912 0.0889,0.3182 0,0.1242 -0.0367,0.2406 -0.1087,0.3507 -0.0727,0.1093 -0.1771,0.194 -0.3133,0.254 -0.1361,0.06 -0.2906,0.0896 -0.4628,0.0896 -0.2857,0 -0.503,-0.0593 -0.6526,-0.1778 -0.1496,-0.1185 -0.2449,-0.2942 -0.2858,-0.5271z"/>
  <path class="fil1" d="M84.3578 85.4966c0,-0.4064 0.1129,-0.7077 0.3394,-0.9031 0.1884,-0.1623 0.4184,-0.2442 0.69,-0.2442 0.302,0 0.5489,0.0988 0.7401,0.2971 0.1919,0.1975 0.2872,0.4706 0.2872,0.8191 0,0.2829 -0.0424,0.5052 -0.127,0.6668 -0.0847,0.1622 -0.2082,0.2878 -0.3697,0.3774 -0.1623,0.0896 -0.3387,0.1341 -0.5306,0.1341 -0.3069,0 -0.5553,-0.0981 -0.7451,-0.2956 -0.1898,-0.1969 -0.2843,-0.4805 -0.2843,-0.8516zm0.3824 0c0,0.2815 0.0614,0.4917 0.1842,0.6314 0.1227,0.1404 0.2772,0.2103 0.4628,0.2103 0.1849,0 0.3387,-0.0706 0.4614,-0.211 0.1221,-0.1404 0.1835,-0.3549 0.1835,-0.6427 0,-0.2717 -0.0614,-0.4777 -0.1849,-0.6174 -0.1235,-0.1397 -0.2766,-0.2095 -0.46,-0.2095 -0.1856,0 -0.3401,0.0698 -0.4628,0.2088 -0.1228,0.139 -0.1842,0.3493 -0.1842,0.6301z"/>
  <path class="fil1" d="M88.2898 86.5944l0 -0.3224c-0.1714,0.2483 -0.4036,0.3718 -0.6971,0.3718 -0.1291,0 -0.2504,-0.0247 -0.3626,-0.0741 -0.1122,-0.0494 -0.1955,-0.1122 -0.2498,-0.187 -0.055,-0.0755 -0.0931,-0.1672 -0.115,-0.2758 -0.0148,-0.0734 -0.0226,-0.1891 -0.0226,-0.3479l0 -1.3596 0.3719 0 0 1.2171c0,0.1947 0.0077,0.3253 0.0225,0.393 0.024,0.0981 0.0734,0.1743 0.1489,0.2307 0.0762,0.0558 0.17,0.0833 0.2815,0.0833 0.1115,0 0.2159,-0.0283 0.314,-0.0854 0.0981,-0.0572 0.1672,-0.1355 0.2074,-0.2335 0.0409,-0.0988 0.0614,-0.242 0.0614,-0.429l0 -1.1762 0.3718 0 0 2.195 -0.3323 0z"/>
  <path class="fil1" d="M89.2014 86.5944l0 -2.195 0.3344 0 0 0.3323c0.0854,-0.1552 0.1644,-0.2582 0.2371,-0.3076 0.0719,-0.0494 0.1517,-0.0748 0.2384,-0.0748 0.1256,0 0.2526,0.0403 0.3824,0.12l-0.1284 0.3457c-0.0903,-0.0543 -0.1813,-0.0811 -0.2723,-0.0811 -0.0819,0 -0.1545,0.0247 -0.2194,0.0733 -0.0649,0.0494 -0.1108,0.1172 -0.1383,0.2039 -0.0416,0.132 -0.0621,0.2766 -0.0621,0.434l0 1.1493 -0.3718 0z"/>
  <path class="fil1" d="M92.0476 85.7901l0.3654 0.048c-0.0395,0.2518 -0.1418,0.4494 -0.3069,0.5919 -0.1644,0.1425 -0.3669,0.2138 -0.6067,0.2138 -0.2999,0 -0.5419,-0.0981 -0.7239,-0.2942 -0.1828,-0.1962 -0.2745,-0.4777 -0.2745,-0.8446 0,-0.237 0.0395,-0.4445 0.1178,-0.6223 0.079,-0.1778 0.1983,-0.3111 0.3592,-0.4 0.1601,-0.0889 0.3351,-0.1334 0.5235,-0.1334 0.2384,0 0.4339,0.0607 0.5849,0.1814 0.1517,0.1206 0.249,0.2914 0.2921,0.5136l-0.362 0.0557c-0.0346,-0.1474 -0.0952,-0.2582 -0.1827,-0.333 -0.0875,-0.0741 -0.1933,-0.1115 -0.3175,-0.1115 -0.1877,0 -0.3401,0.0671 -0.4572,0.2018 -0.1171,0.1341 -0.1757,0.3465 -0.1757,0.6371 0,0.295 0.0565,0.5095 0.17,0.6435 0.1129,0.1334 0.2604,0.2004 0.4424,0.2004 0.1461,0 0.2674,-0.0452 0.3655,-0.1348 0.0981,-0.0896 0.1602,-0.2272 0.1863,-0.4134z"/>
  <path class="fil1" d="M94.2341 85.8874l0.3845 0.0473c-0.0606,0.2251 -0.1728,0.3994 -0.3365,0.5235 -0.1644,0.1235 -0.374,0.1856 -0.6287,0.1856 -0.321,0 -0.5757,-0.0988 -0.7634,-0.2963 -0.1883,-0.1976 -0.2822,-0.4749 -0.2822,-0.8319 0,-0.3697 0.0953,-0.6561 0.2851,-0.8601 0.1905,-0.2039 0.4367,-0.3062 0.7401,-0.3062 0.2935,0 0.5334,0.1002 0.7189,0.2999 0.1863,0.1997 0.2794,0.4812 0.2794,0.8431 0,0.0226 -0.0007,0.0558 -0.0021,0.0995l-1.6369 0c0.0135,0.2413 0.0819,0.4262 0.2047,0.5539 0.1227,0.1284 0.2751,0.1926 0.4586,0.1926 0.1361,0 0.2525,-0.036 0.3492,-0.108 0.0967,-0.0712 0.1729,-0.1855 0.2293,-0.3429zm-1.2213 -0.6018l1.2255 0c-0.0162,-0.1841 -0.0635,-0.3231 -0.1404,-0.4149 -0.1185,-0.1432 -0.2723,-0.2152 -0.4607,-0.2152 -0.1707,0 -0.3147,0.0572 -0.4311,0.1715 -0.1164,0.1143 -0.1806,0.2674 -0.1933,0.4586z"/>
  <path class="fil1" d="M82.8406 67.8081l0 -1.9057 -0.3281 0 0 -0.2893 0.3281 0 0 -0.2335c0,-0.1475 0.0134,-0.2575 0.0395,-0.3288 0.036,-0.0966 0.0988,-0.175 0.1891,-0.2349 0.0903,-0.06 0.2166,-0.0896 0.3796,-0.0896 0.1044,0 0.2201,0.012 0.3471,0.0374l-0.0557 0.3245c-0.0769,-0.0141 -0.1503,-0.0212 -0.2195,-0.0212 -0.1128,0 -0.1926,0.024 -0.2391,0.0727 -0.0473,0.048 -0.0706,0.1383 -0.0706,0.2709l0 0.2025 0.4276 0 0 0.2893 -0.4276 0 0 1.9057 -0.3704 0z"/>
  <path class="fil1" d="M85.3609 67.5372c-0.1383,0.1171 -0.271,0.1996 -0.398,0.2483 -0.1277,0.048 -0.2645,0.072 -0.4106,0.072 -0.2413,0 -0.4261,-0.0586 -0.556,-0.1764 -0.1291,-0.1178 -0.194,-0.2688 -0.194,-0.4516 0,-0.1079 0.024,-0.206 0.0734,-0.2949 0.0487,-0.0889 0.1129,-0.1601 0.1919,-0.2138 0.0797,-0.0536 0.1686,-0.0945 0.2681,-0.122 0.0727,-0.0191 0.1827,-0.0381 0.3302,-0.0558 0.3006,-0.0359 0.5221,-0.0783 0.6639,-0.1284 0.0014,-0.0508 0.0021,-0.0832 0.0021,-0.0966 0,-0.1517 -0.0352,-0.259 -0.1058,-0.3203 -0.0945,-0.0847 -0.2364,-0.1263 -0.4233,-0.1263 -0.175,0 -0.3041,0.0303 -0.3881,0.0917 -0.0832,0.0614 -0.1446,0.17 -0.1848,0.326l-0.3634 -0.0501c0.0332,-0.1553 0.0875,-0.2816 0.163,-0.3768 0.0755,-0.096 0.1856,-0.17 0.3288,-0.2215 0.1432,-0.0516 0.309,-0.0777 0.4981,-0.0777 0.1877,0 0.3394,0.0226 0.4565,0.0664 0.1171,0.0444 0.2032,0.0994 0.2589,0.1665 0.0551,0.067 0.0932,0.151 0.1157,0.2533 0.012,0.0635 0.0184,0.1778 0.0184,0.3429l0 0.496c0,0.3464 0.0077,0.5651 0.024,0.6561 0.0155,0.0917 0.0472,0.1799 0.0938,0.2639l-0.3888 0c-0.0381,-0.0769 -0.0635,-0.1672 -0.074,-0.2709zm-0.0311 -0.8312c-0.1354,0.0558 -0.3379,0.1023 -0.6075,0.1411 -0.1531,0.0219 -0.2617,0.0466 -0.3245,0.0741 -0.0635,0.0275 -0.1129,0.0678 -0.1468,0.1214 -0.0345,0.0529 -0.0522,0.1115 -0.0522,0.1764 0,0.0994 0.0381,0.182 0.1129,0.2483 0.0748,0.0656 0.1849,0.0988 0.3295,0.0988 0.1432,0 0.2709,-0.031 0.3824,-0.0938 0.1115,-0.0628 0.194,-0.1489 0.2462,-0.2576 0.0403,-0.0839 0.06,-0.2081 0.06,-0.3718l0 -0.1369z"/>
  <polygon class="fil1" points="86.2844,67.8081 86.2844,64.7778 86.6569,64.7778 86.6569,66.5057 87.5375,65.6131 88.0187,65.6131 87.1798,66.4273 88.104,67.8081 87.6447,67.8081 86.9194,66.6856 86.6569,66.9382 86.6569,67.8081 "/>
  <path class="fil1" d="M89.9018 67.1011l0.3845 0.0473c-0.0606,0.2251 -0.1728,0.3994 -0.3365,0.5235 -0.1644,0.1235 -0.374,0.1856 -0.6287,0.1856 -0.321,0 -0.5757,-0.0988 -0.7634,-0.2963 -0.1883,-0.1976 -0.2822,-0.4749 -0.2822,-0.8319 0,-0.3697 0.0953,-0.6561 0.2851,-0.8601 0.1905,-0.2039 0.4367,-0.3062 0.7401,-0.3062 0.2935,0 0.5334,0.1002 0.7189,0.2999 0.1863,0.1997 0.2794,0.4812 0.2794,0.8431 0,0.0226 -0.0007,0.0558 -0.0021,0.0995l-1.6369 0c0.0135,0.2413 0.0819,0.4262 0.2047,0.5539 0.1227,0.1284 0.2751,0.1926 0.4586,0.1926 0.1361,0 0.2525,-0.036 0.3492,-0.108 0.0967,-0.0712 0.1729,-0.1855 0.2293,-0.3429zm-1.2213 -0.6018l1.2255 0c-0.0162,-0.1841 -0.0635,-0.3231 -0.1404,-0.4149 -0.1185,-0.1432 -0.2723,-0.2152 -0.4607,-0.2152 -0.1707,0 -0.3147,0.0572 -0.4311,0.1715 -0.1164,0.1143 -0.1806,0.2674 -0.1933,0.4586z"/>
  <path class="fil1" d="M91.9839 67.8081l0 -3.0303 1.3434 0c0.2702,0 0.4755,0.0275 0.6159,0.0818 0.1404,0.0543 0.2526,0.1503 0.3373,0.2879 0.0839,0.1383 0.1256,0.2907 0.1256,0.4572 0,0.2152 -0.0692,0.3958 -0.2089,0.5432 -0.139,0.1475 -0.3542,0.2413 -0.6448,0.2816 0.1065,0.0508 0.1869,0.1008 0.242,0.1509 0.1171,0.1073 0.2279,0.242 0.333,0.4029l0.527 0.8248 -0.5044 0 -0.4008 -0.6308c-0.1171,-0.1813 -0.2138,-0.321 -0.29,-0.4169 -0.0755,-0.0967 -0.1432,-0.1644 -0.2032,-0.2025 -0.0599,-0.0388 -0.1206,-0.0657 -0.1827,-0.0812 -0.0459,-0.0091 -0.12,-0.0141 -0.2237,-0.0141l-0.4649 0 0 1.3455 -0.4008 0zm0.4008 -1.6926l0.8622 0c0.1827,0 0.3266,-0.0191 0.4296,-0.0572 0.1037,-0.0381 0.1821,-0.0987 0.2357,-0.182 0.0536,-0.0833 0.0804,-0.1736 0.0804,-0.2716 0,-0.1433 -0.0515,-0.2611 -0.1559,-0.3535 -0.1037,-0.0924 -0.2681,-0.1383 -0.4932,-0.1383l-0.9588 0 0 1.0026z"/>
  <polygon class="fil1" points="95.7296,67.8081 95.7296,65.1355 94.7313,65.1355 94.7313,64.7778 97.133,64.7778 97.133,65.1355 96.1304,65.1355 96.1304,67.8081 "/>
  <path class="fil1" d="M99.5325 64.7778l0.4015 0 0 1.7511c0,0.3041 -0.0346,0.5461 -0.1037,0.7253 -0.0692,0.1793 -0.1934,0.3246 -0.3733,0.4368 -0.1799,0.1129 -0.4156,0.1686 -0.7077,0.1686 -0.2836,0 -0.5164,-0.0487 -0.6963,-0.1467 -0.1806,-0.0974 -0.3098,-0.2392 -0.3867,-0.4248 -0.0776,-0.1856 -0.1157,-0.4381 -0.1157,-0.7592l0 -1.7511 0.4008 0 0 1.749c0,0.2632 0.0247,0.4572 0.0733,0.5814 0.0487,0.1249 0.1334,0.2208 0.2519,0.2886 0.1193,0.0677 0.2653,0.1016 0.4375,0.1016 0.2949,0 0.5051,-0.0671 0.6307,-0.2011 0.1249,-0.1334 0.1877,-0.3902 0.1877,-0.7705l0 -1.749z"/>
  <path class="fil1" d="M103.154 67.8081l0 -0.2773c-0.139,0.218 -0.3436,0.3267 -0.6138,0.3267 -0.175,0 -0.3359,-0.048 -0.4826,-0.1446 -0.1468,-0.096 -0.2604,-0.2308 -0.3415,-0.4043 -0.0804,-0.1729 -0.1207,-0.3711 -0.1207,-0.5962 0,-0.2187 0.0367,-0.4177 0.1094,-0.5962 0.0734,-0.1785 0.1827,-0.3154 0.3288,-0.4099 0.146,-0.0953 0.3097,-0.1433 0.4903,-0.1433 0.132,0 0.2498,0.0283 0.3528,0.084 0.1037,0.0557 0.1877,0.1284 0.2526,0.218l0 -1.0872 0.3697 0 0 3.0303 -0.345 0zm-1.1762 -1.0957c0,0.2815 0.0593,0.4917 0.1778,0.6307 0.1186,0.139 0.2583,0.2089 0.4198,0.2089 0.1623,0 0.3006,-0.067 0.4142,-0.1997 0.1136,-0.1326 0.1707,-0.3358 0.1707,-0.6089 0,-0.3005 -0.0578,-0.5207 -0.1735,-0.6611 -0.1157,-0.1411 -0.2582,-0.2109 -0.4283,-0.2109 -0.1651,0 -0.3034,0.0677 -0.4141,0.2025 -0.1108,0.1347 -0.1666,0.3478 -0.1666,0.6385z"/>
  <path class="fil1" d="M105.587 67.1011l0.3845 0.0473c-0.0606,0.2251 -0.1728,0.3994 -0.3365,0.5235 -0.1644,0.1235 -0.374,0.1856 -0.6287,0.1856 -0.321,0 -0.5757,-0.0988 -0.7634,-0.2963 -0.1883,-0.1976 -0.2822,-0.4749 -0.2822,-0.8319 0,-0.3697 0.0953,-0.6561 0.2851,-0.8601 0.1905,-0.2039 0.4367,-0.3062 0.7401,-0.3062 0.2935,0 0.5334,0.1002 0.7189,0.2999 0.1863,0.1997 0.2794,0.4812 0.2794,0.8431 0,0.0226 -0.0007,0.0558 -0.0021,0.0995l-1.6369 0c0.0135,0.2413 0.0819,0.4262 0.2047,0.5539 0.1227,0.1284 0.2751,0.1926 0.4586,0.1926 0.1361,0 0.2525,-0.036 0.3492,-0.108 0.0967,-0.0712 0.1729,-0.1855 0.2293,-0.3429zm-1.2213 -0.6018l1.2255 0c-0.0162,-0.1841 -0.0635,-0.3231 -0.1404,-0.4149 -0.1185,-0.1432 -0.2723,-0.2152 -0.4607,-0.2152 -0.1707,0 -0.3147,0.0572 -0.4311,0.1715 -0.1164,0.1143 -0.1806,0.2674 -0.1933,0.4586z"/>
  <path class="fil1" d="M107.871 67.0038l0.3654 0.048c-0.0395,0.2518 -0.1418,0.4494 -0.3069,0.5919 -0.1644,0.1425 -0.3669,0.2138 -0.6067,0.2138 -0.2999,0 -0.5419,-0.0981 -0.7239,-0.2942 -0.1828,-0.1962 -0.2745,-0.4777 -0.2745,-0.8446 0,-0.237 0.0395,-0.4445 0.1178,-0.6223 0.079,-0.1778 0.1983,-0.3111 0.3592,-0.4 0.1601,-0.0889 0.3351,-0.1334 0.5235,-0.1334 0.2384,0 0.4339,0.0607 0.5849,0.1814 0.1517,0.1206 0.249,0.2914 0.2921,0.5136l-0.362 0.0557c-0.0346,-0.1474 -0.0952,-0.2582 -0.1827,-0.333 -0.0875,-0.0741 -0.1933,-0.1115 -0.3175,-0.1115 -0.1877,0 -0.3401,0.0671 -0.4572,0.2018 -0.1171,0.1341 -0.1757,0.3465 -0.1757,0.6371 0,0.295 0.0565,0.5095 0.17,0.6435 0.1129,0.1334 0.2604,0.2004 0.4424,0.2004 0.1461,0 0.2674,-0.0452 0.3655,-0.1348 0.0981,-0.0896 0.1602,-0.2272 0.1863,-0.4134z"/>
  <path class="fil1" d="M108.557 65.206l0 -0.4282 0.3725 0 0 0.4282 -0.3725 0zm0 2.6021l0 -2.195 0.3725 0 0 2.195 -0.3725 0z"/>
  <path class="fil1" d="M109.347 67.1526l0.3676 -0.0578c0.0205,0.1474 0.0783,0.2603 0.1729,0.3394 0.0938,0.0783 0.2258,0.1178 0.3958,0.1178 0.1707,0 0.2977,-0.0353 0.3803,-0.1044 0.0825,-0.0699 0.1242,-0.1517 0.1242,-0.2449 0,-0.0846 -0.0367,-0.1502 -0.1101,-0.1989 -0.0508,-0.0332 -0.1778,-0.0748 -0.3803,-0.1256 -0.2723,-0.0692 -0.4621,-0.1284 -0.5673,-0.1792 -0.1051,-0.0501 -0.1855,-0.12 -0.2398,-0.2089 -0.0544,-0.0889 -0.0819,-0.1869 -0.0819,-0.2942 0,-0.0981 0.0226,-0.1884 0.0677,-0.2716 0.0445,-0.084 0.1059,-0.1531 0.1828,-0.2082 0.0578,-0.0423 0.1369,-0.079 0.2363,-0.1086 0.1002,-0.0296 0.2075,-0.0445 0.3218,-0.0445 0.1721,0 0.3231,0.0254 0.4536,0.0748 0.1306,0.0494 0.2265,0.1164 0.2886,0.2011 0.0621,0.0854 0.1044,0.1983 0.1277,0.3401l-0.3633 0.0501c-0.017,-0.1129 -0.065,-0.2011 -0.144,-0.2646 -0.079,-0.0635 -0.1912,-0.0953 -0.3358,-0.0953 -0.1708,0 -0.2928,0.0283 -0.3655,0.0847 -0.0734,0.0565 -0.1101,0.1228 -0.1101,0.1983 0,0.0487 0.0156,0.0917 0.0459,0.1305 0.0303,0.0402 0.0776,0.0727 0.1425,0.0995 0.0374,0.0134 0.1468,0.0451 0.3288,0.0945 0.2632,0.0706 0.4466,0.1277 0.5503,0.1729 0.1045,0.0444 0.1863,0.1101 0.2456,0.1954 0.0592,0.0854 0.0889,0.1912 0.0889,0.3182 0,0.1242 -0.0367,0.2406 -0.1087,0.3507 -0.0727,0.1093 -0.1771,0.194 -0.3133,0.254 -0.1361,0.06 -0.2906,0.0896 -0.4628,0.0896 -0.2857,0 -0.503,-0.0593 -0.6526,-0.1778 -0.1496,-0.1185 -0.2449,-0.2942 -0.2858,-0.5271z"/>
  <path class="fil1" d="M111.614 65.206l0 -0.4282 0.3725 0 0 0.4282 -0.3725 0zm0 2.6021l0 -2.195 0.3725 0 0 2.195 -0.3725 0z"/>
  <path class="fil1" d="M112.415 66.7103c0,-0.4064 0.1129,-0.7077 0.3394,-0.9031 0.1884,-0.1623 0.4184,-0.2442 0.69,-0.2442 0.302,0 0.5489,0.0988 0.7401,0.2971 0.1919,0.1975 0.2872,0.4706 0.2872,0.8191 0,0.2829 -0.0424,0.5052 -0.127,0.6668 -0.0847,0.1622 -0.2082,0.2878 -0.3697,0.3774 -0.1623,0.0896 -0.3387,0.1341 -0.5306,0.1341 -0.3069,0 -0.5553,-0.0981 -0.7451,-0.2956 -0.1898,-0.1969 -0.2843,-0.4805 -0.2843,-0.8516zm0.3824 0c0,0.2815 0.0614,0.4917 0.1842,0.6314 0.1227,0.1404 0.2772,0.2103 0.4628,0.2103 0.1849,0 0.3387,-0.0706 0.4614,-0.211 0.1221,-0.1404 0.1835,-0.3549 0.1835,-0.6427 0,-0.2717 -0.0614,-0.4777 -0.1849,-0.6174 -0.1235,-0.1397 -0.2766,-0.2095 -0.46,-0.2095 -0.1856,0 -0.3401,0.0698 -0.4628,0.2088 -0.1228,0.139 -0.1842,0.3493 -0.1842,0.6301z"/>
  <path class="fil1" d="M114.908 67.8081l0 -2.195 0.3344 0 0 0.3119c0.1616,-0.2413 0.3944,-0.362 0.6985,-0.362 0.1327,0 0.254,0.024 0.3648,0.0713 0.1115,0.048 0.194,0.1101 0.2491,0.1877 0.0557,0.0769 0.0938,0.1686 0.1164,0.2744 0.0134,0.0692 0.0204,0.1898 0.0204,0.362l0 1.3497 -0.3725 0 0 -1.3356c0,-0.151 -0.0141,-0.2646 -0.043,-0.3401 -0.029,-0.0748 -0.0805,-0.1347 -0.1539,-0.1792 -0.074,-0.0451 -0.1601,-0.0677 -0.2596,-0.0677 -0.1587,0 -0.2949,0.0508 -0.4106,0.151 -0.115,0.1009 -0.1722,0.2914 -0.1722,0.5729l0 1.1987 -0.3718 0z"/>
  <path class="fil1" d="M118.439 68.6491l0 -3.036 0.3387 0 0 0.2851c0.0797,-0.1115 0.17,-0.1955 0.2709,-0.2512 0.1002,-0.0557 0.2222,-0.084 0.3655,-0.084 0.1876,0 0.3527,0.0487 0.496,0.1447 0.1439,0.0966 0.2519,0.2328 0.3245,0.4085 0.0734,0.1757 0.1101,0.3683 0.1101,0.5778 0,0.2244 -0.0402,0.4269 -0.1214,0.6068 -0.0804,0.1799 -0.1975,0.3175 -0.3513,0.4135 -0.1538,0.0952 -0.3154,0.1432 -0.4847,0.1432 -0.1242,0 -0.235,-0.0261 -0.3338,-0.0783 -0.0987,-0.0522 -0.1792,-0.1186 -0.2427,-0.1983l0 1.0682 -0.3718 0zm0.3365 -1.9261c0,0.2822 0.0572,0.491 0.1715,0.6265 0.1143,0.1348 0.2533,0.2025 0.4156,0.2025 0.1651,0 0.3069,-0.0699 0.4247,-0.2103 0.1178,-0.1397 0.1771,-0.3563 0.1771,-0.6498 0,-0.2801 -0.0579,-0.4889 -0.1729,-0.6286 -0.115,-0.139 -0.2525,-0.2089 -0.412,-0.2089 -0.1588,0 -0.2992,0.0741 -0.4212,0.2223 -0.1221,0.1481 -0.1828,0.364 -0.1828,0.6463z"/>
  <path class="fil1" d="M120.654 66.7103c0,-0.4064 0.1129,-0.7077 0.3394,-0.9031 0.1884,-0.1623 0.4184,-0.2442 0.69,-0.2442 0.302,0 0.5489,0.0988 0.7401,0.2971 0.1919,0.1975 0.2872,0.4706 0.2872,0.8191 0,0.2829 -0.0424,0.5052 -0.127,0.6668 -0.0847,0.1622 -0.2082,0.2878 -0.3697,0.3774 -0.1623,0.0896 -0.3387,0.1341 -0.5306,0.1341 -0.3069,0 -0.5553,-0.0981 -0.7451,-0.2956 -0.1898,-0.1969 -0.2843,-0.4805 -0.2843,-0.8516zm0.3824 0c0,0.2815 0.0614,0.4917 0.1842,0.6314 0.1227,0.1404 0.2772,0.2103 0.4628,0.2103 0.1849,0 0.3387,-0.0706 0.4614,-0.211 0.1221,-0.1404 0.1835,-0.3549 0.1835,-0.6427 0,-0.2717 -0.0614,-0.4777 -0.1849,-0.6174 -0.1235,-0.1397 -0.2766,-0.2095 -0.46,-0.2095 -0.1856,0 -0.3401,0.0698 -0.4628,0.2088 -0.1228,0.139 -0.1842,0.3493 -0.1842,0.6301z"/>
  <path class="fil1" d="M123.143 67.8081l0 -2.195 0.3344 0 0 0.3323c0.0854,-0.1552 0.1644,-0.2582 0.2371,-0.3076 0.0719,-0.0494 0.1517,-0.0748 0.2384,-0.0748 0.1256,0 0.2526,0.0403 0.3824,0.12l-0.1284 0.3457c-0.0903,-0.0543 -0.1813,-0.0811 -0.2723,-0.0811 -0.0819,0 -0.1545,0.0247 -0.2194,0.0733 -0.0649,0.0494 -0.1108,0.1172 -0.1383,0.2039 -0.0416,0.132 -0.0621,0.2766 -0.0621,0.434l0 1.1493 -0.3718 0z"/>
  <path class="fil1" d="M125.369 67.4751l0.0536 0.3288c-0.1044,0.0218 -0.1983,0.0331 -0.2808,0.0331 -0.1355,0 -0.2399,-0.0211 -0.3147,-0.0642 -0.0741,-0.0423 -0.1263,-0.0988 -0.1566,-0.1686 -0.0303,-0.0691 -0.0459,-0.2159 -0.0459,-0.4389l0 -1.2629 -0.273 0 0 -0.2893 0.273 0 0 -0.5439 0.3704 -0.223 0 0.7669 0.374 0 0 0.2893 -0.374 0 0 1.2834c0,0.1065 0.0064,0.1743 0.0191,0.2046 0.0134,0.0304 0.0346,0.0543 0.0642,0.0727 0.0296,0.0176 0.072,0.0268 0.127,0.0268 0.0416,0 0.096,-0.0049 0.1637,-0.0148z"/>
  <path class="fil3" d="M49.9365 86.9451l-0.8043 -3.0303 0.4113 0 0.4615 1.9861c0.0494,0.2081 0.0917,0.4148 0.1277,0.6202 0.0776,-0.3239 0.1227,-0.5101 0.1369,-0.5602l0.5764 -2.0461 0.484 0 0.4339 1.5338c0.1087,0.3803 0.187,0.738 0.2357,1.0725 0.0381,-0.1912 0.0889,-0.4114 0.1509,-0.659l0.4749 -1.9473 0.4036 0 -0.8312 3.0303 -0.3866 0 -0.6385 -2.3086c-0.0537,-0.1933 -0.0854,-0.3118 -0.0953,-0.3556 -0.0317,0.139 -0.0614,0.2576 -0.0889,0.3556l-0.6427 2.3086 -0.4093 0z"/>
  <path class="fil3" d="M53.4092 86.9451l0 -3.0303 1.3434 0c0.2702,0 0.4755,0.0275 0.6159,0.0818 0.1404,0.0543 0.2526,0.1503 0.3373,0.2879 0.0839,0.1383 0.1256,0.2907 0.1256,0.4572 0,0.2152 -0.0692,0.3958 -0.2089,0.5432 -0.139,0.1475 -0.3542,0.2413 -0.6448,0.2816 0.1065,0.0508 0.1869,0.1008 0.242,0.1509 0.1171,0.1073 0.2279,0.242 0.333,0.4029l0.527 0.8248 -0.5044 0 -0.4008 -0.6308c-0.1171,-0.1813 -0.2138,-0.321 -0.29,-0.4169 -0.0755,-0.0967 -0.1432,-0.1644 -0.2032,-0.2025 -0.0599,-0.0388 -0.1206,-0.0657 -0.1827,-0.0812 -0.0459,-0.0091 -0.12,-0.0141 -0.2237,-0.0141l-0.4649 0 0 1.3455 -0.4008 0zm0.4008 -1.6926l0.8622 0c0.1827,0 0.3266,-0.0191 0.4296,-0.0572 0.1037,-0.0381 0.1821,-0.0987 0.2357,-0.182 0.0536,-0.0833 0.0804,-0.1736 0.0804,-0.2716 0,-0.1433 -0.0515,-0.2611 -0.1559,-0.3535 -0.1037,-0.0924 -0.2681,-0.1383 -0.4932,-0.1383l-0.9588 0 0 1.0026z"/>
  <polygon class="fil3" points="56.4804,86.9451 56.4804,83.9148 58.5251,83.9148 58.5251,84.2725 56.8819,84.2725 56.8819,85.2109 58.3036,85.2109 58.3036,85.5686 56.8819,85.5686 56.8819,86.9451 "/>
  <path class="fil3" d="M49.2112 91.0189l0.3676 -0.0578c0.0205,0.1474 0.0783,0.2603 0.1729,0.3394 0.0938,0.0783 0.2258,0.1178 0.3958,0.1178 0.1707,0 0.2977,-0.0353 0.3803,-0.1044 0.0825,-0.0699 0.1242,-0.1517 0.1242,-0.2449 0,-0.0846 -0.0367,-0.1502 -0.1101,-0.1989 -0.0508,-0.0332 -0.1778,-0.0748 -0.3803,-0.1256 -0.2723,-0.0692 -0.4621,-0.1284 -0.5673,-0.1792 -0.1051,-0.0501 -0.1855,-0.12 -0.2398,-0.2089 -0.0544,-0.0889 -0.0819,-0.1869 -0.0819,-0.2942 0,-0.0981 0.0226,-0.1884 0.0677,-0.2716 0.0445,-0.084 0.1059,-0.1531 0.1828,-0.2082 0.0578,-0.0423 0.1369,-0.079 0.2363,-0.1086 0.1002,-0.0296 0.2075,-0.0445 0.3218,-0.0445 0.1721,0 0.3231,0.0254 0.4536,0.0748 0.1306,0.0494 0.2265,0.1164 0.2886,0.2011 0.0621,0.0854 0.1044,0.1983 0.1277,0.3401l-0.3633 0.0501c-0.017,-0.1129 -0.065,-0.2011 -0.144,-0.2646 -0.079,-0.0635 -0.1912,-0.0953 -0.3358,-0.0953 -0.1708,0 -0.2928,0.0283 -0.3655,0.0847 -0.0734,0.0565 -0.1101,0.1228 -0.1101,0.1983 0,0.0487 0.0156,0.0917 0.0459,0.1305 0.0303,0.0402 0.0776,0.0727 0.1425,0.0995 0.0374,0.0134 0.1468,0.0451 0.3288,0.0945 0.2632,0.0706 0.4466,0.1277 0.5503,0.1729 0.1045,0.0444 0.1863,0.1101 0.2456,0.1954 0.0592,0.0854 0.0889,0.1912 0.0889,0.3182 0,0.1242 -0.0367,0.2406 -0.1087,0.3507 -0.0727,0.1093 -0.1771,0.194 -0.3133,0.254 -0.1361,0.06 -0.2906,0.0896 -0.4628,0.0896 -0.2857,0 -0.503,-0.0593 -0.6526,-0.1778 -0.1496,-0.1185 -0.2449,-0.2942 -0.2858,-0.5271z"/>
  <path class="fil3" d="M51.4782 89.0723l0 -0.4282 0.3725 0 0 0.4282 -0.3725 0zm0 2.6021l0 -2.195 0.3725 0 0 2.195 -0.3725 0z"/>
  <path class="fil3" d="M52.4173 91.6744l0 -2.195 0.3344 0 0 0.3119c0.1616,-0.2413 0.3944,-0.362 0.6985,-0.362 0.1327,0 0.254,0.024 0.3648,0.0713 0.1115,0.048 0.194,0.1101 0.2491,0.1877 0.0557,0.0769 0.0938,0.1686 0.1164,0.2744 0.0134,0.0692 0.0204,0.1898 0.0204,0.362l0 1.3497 -0.3725 0 0 -1.3356c0,-0.151 -0.0141,-0.2646 -0.043,-0.3401 -0.029,-0.0748 -0.0805,-0.1347 -0.1539,-0.1792 -0.074,-0.0451 -0.1601,-0.0677 -0.2596,-0.0677 -0.1587,0 -0.2949,0.0508 -0.4106,0.151 -0.115,0.1009 -0.1722,0.2914 -0.1722,0.5729l0 1.1987 -0.3718 0z"/>
  <polygon class="fil3" points="54.7731,91.6744 54.7731,88.6441 55.1456,88.6441 55.1456,90.372 56.0262,89.4794 56.5074,89.4794 55.6685,90.2936 56.5927,91.6744 56.1334,91.6744 55.4081,90.5519 55.1456,90.8045 55.1456,91.6744 "/>
  <path class="fil3" d="M49.4137 69.1651l0 -3.0303 1.3434 0c0.2702,0 0.4755,0.0275 0.6159,0.0818 0.1404,0.0543 0.2526,0.1503 0.3373,0.2879 0.0839,0.1383 0.1256,0.2907 0.1256,0.4572 0,0.2152 -0.0692,0.3958 -0.2089,0.5432 -0.139,0.1475 -0.3542,0.2413 -0.6448,0.2816 0.1065,0.0508 0.1869,0.1008 0.242,0.1509 0.1171,0.1073 0.2279,0.242 0.333,0.4029l0.527 0.8248 -0.5044 0 -0.4008 -0.6308c-0.1171,-0.1813 -0.2138,-0.321 -0.29,-0.4169 -0.0755,-0.0967 -0.1432,-0.1644 -0.2032,-0.2025 -0.0599,-0.0388 -0.1206,-0.0657 -0.1827,-0.0812 -0.0459,-0.0091 -0.12,-0.0141 -0.2237,-0.0141l-0.4649 0 0 1.3455 -0.4008 0zm0.4008 -1.6926l0.8622 0c0.1827,0 0.3266,-0.0191 0.4296,-0.0572 0.1037,-0.0381 0.1821,-0.0987 0.2357,-0.182 0.0536,-0.0833 0.0804,-0.1736 0.0804,-0.2716 0,-0.1433 -0.0515,-0.2611 -0.1559,-0.3535 -0.1037,-0.0924 -0.2681,-0.1383 -0.4932,-0.1383l-0.9588 0 0 1.0026z"/>
  <polygon class="fil3" points="53.1594,69.1651 53.1594,66.4925 52.1611,66.4925 52.1611,66.1348 54.5628,66.1348 54.5628,66.4925 53.5602,66.4925 53.5602,69.1651 "/>
  <path class="fil3" d="M56.9623 66.1348l0.4015 0 0 1.7511c0,0.3041 -0.0346,0.5461 -0.1037,0.7253 -0.0692,0.1793 -0.1934,0.3246 -0.3733,0.4368 -0.1799,0.1129 -0.4156,0.1686 -0.7077,0.1686 -0.2836,0 -0.5164,-0.0487 -0.6963,-0.1467 -0.1806,-0.0974 -0.3098,-0.2392 -0.3867,-0.4248 -0.0776,-0.1856 -0.1157,-0.4381 -0.1157,-0.7592l0 -1.7511 0.4008 0 0 1.749c0,0.2632 0.0247,0.4572 0.0733,0.5814 0.0487,0.1249 0.1334,0.2208 0.2519,0.2886 0.1193,0.0677 0.2653,0.1016 0.4375,0.1016 0.2949,0 0.5051,-0.0671 0.6307,-0.2011 0.1249,-0.1334 0.1877,-0.3902 0.1877,-0.7705l0 -1.749z"/>
  <path class="fil3" d="M49.3615 71.2923l0 -0.4282 0.3725 0 0 0.4282 -0.3725 0zm0 2.6021l0 -2.195 0.3725 0 0 2.195 -0.3725 0z"/>
  <path class="fil3" d="M50.3006 73.8944l0 -2.195 0.3344 0 0 0.3119c0.1616,-0.2413 0.3944,-0.362 0.6985,-0.362 0.1327,0 0.254,0.024 0.3648,0.0713 0.1115,0.048 0.194,0.1101 0.2491,0.1877 0.0557,0.0769 0.0938,0.1686 0.1164,0.2744 0.0134,0.0692 0.0204,0.1898 0.0204,0.362l0 1.3497 -0.3725 0 0 -1.3356c0,-0.151 -0.0141,-0.2646 -0.043,-0.3401 -0.029,-0.0748 -0.0805,-0.1347 -0.1539,-0.1792 -0.074,-0.0451 -0.1601,-0.0677 -0.2596,-0.0677 -0.1587,0 -0.2949,0.0508 -0.4106,0.151 -0.115,0.1009 -0.1722,0.2914 -0.1722,0.5729l0 1.1987 -0.3718 0z"/>
  <path class="fil3" d="M52.655 74.7354l0 -3.036 0.3387 0 0 0.2851c0.0797,-0.1115 0.17,-0.1955 0.2709,-0.2512 0.1002,-0.0557 0.2222,-0.084 0.3655,-0.084 0.1876,0 0.3527,0.0487 0.496,0.1447 0.1439,0.0966 0.2519,0.2328 0.3245,0.4085 0.0734,0.1757 0.1101,0.3683 0.1101,0.5778 0,0.2244 -0.0402,0.4269 -0.1214,0.6068 -0.0804,0.1799 -0.1975,0.3175 -0.3513,0.4135 -0.1538,0.0952 -0.3154,0.1432 -0.4847,0.1432 -0.1242,0 -0.235,-0.0261 -0.3338,-0.0783 -0.0987,-0.0522 -0.1792,-0.1186 -0.2427,-0.1983l0 1.0682 -0.3718 0zm0.3365 -1.9261c0,0.2822 0.0572,0.491 0.1715,0.6265 0.1143,0.1348 0.2533,0.2025 0.4156,0.2025 0.1651,0 0.3069,-0.0699 0.4247,-0.2103 0.1178,-0.1397 0.1771,-0.3563 0.1771,-0.6498 0,-0.2801 -0.0579,-0.4889 -0.1729,-0.6286 -0.115,-0.139 -0.2525,-0.2089 -0.412,-0.2089 -0.1588,0 -0.2992,0.0741 -0.4212,0.2223 -0.1221,0.1481 -0.1828,0.364 -0.1828,0.6463z"/>
  <path class="fil3" d="M56.448 73.8944l0 -0.3224c-0.1714,0.2483 -0.4036,0.3718 -0.6971,0.3718 -0.1291,0 -0.2504,-0.0247 -0.3626,-0.0741 -0.1122,-0.0494 -0.1955,-0.1122 -0.2498,-0.187 -0.055,-0.0755 -0.0931,-0.1672 -0.115,-0.2758 -0.0148,-0.0734 -0.0226,-0.1891 -0.0226,-0.3479l0 -1.3596 0.3719 0 0 1.2171c0,0.1947 0.0077,0.3253 0.0225,0.393 0.024,0.0981 0.0734,0.1743 0.1489,0.2307 0.0762,0.0558 0.17,0.0833 0.2815,0.0833 0.1115,0 0.2159,-0.0283 0.314,-0.0854 0.0981,-0.0572 0.1672,-0.1355 0.2074,-0.2335 0.0409,-0.0988 0.0614,-0.242 0.0614,-0.429l0 -1.1762 0.3718 0 0 2.195 -0.3323 0z"/>
  <path class="fil3" d="M58.1759 73.5614l0.0536 0.3288c-0.1044,0.0218 -0.1983,0.0331 -0.2808,0.0331 -0.1355,0 -0.2399,-0.0211 -0.3147,-0.0642 -0.0741,-0.0423 -0.1263,-0.0988 -0.1566,-0.1686 -0.0303,-0.0691 -0.0459,-0.2159 -0.0459,-0.4389l0 -1.2629 -0.273 0 0 -0.2893 0.273 0 0 -0.5439 0.3704 -0.223 0 0.7669 0.374 0 0 0.2893 -0.374 0 0 1.2834c0,0.1065 0.0064,0.1743 0.0191,0.2046 0.0134,0.0304 0.0346,0.0543 0.0642,0.0727 0.0296,0.0176 0.072,0.0268 0.127,0.0268 0.0416,0 0.096,-0.0049 0.1637,-0.0148z"/>
  <path class="fil3" d="M50.5728 136.933l-0.8043 -3.0303 0.4113 0 0.4615 1.9861c0.0494,0.2081 0.0917,0.4148 0.1277,0.6202 0.0776,-0.3239 0.1227,-0.5101 0.1369,-0.5602l0.5764 -2.0461 0.484 0 0.4339 1.5338c0.1087,0.3803 0.187,0.738 0.2357,1.0725 0.0381,-0.1912 0.0889,-0.4114 0.1509,-0.659l0.4749 -1.9473 0.4036 0 -0.8312 3.0303 -0.3866 0 -0.6385 -2.3086c-0.0537,-0.1933 -0.0854,-0.3118 -0.0953,-0.3556 -0.0317,0.139 -0.0614,0.2576 -0.0889,0.3556l-0.6427 2.3086 -0.4093 0z"/>
  <path class="fil3" d="M54.0455 136.933l0 -3.0303 1.3434 0c0.2702,0 0.4755,0.0275 0.6159,0.0818 0.1404,0.0543 0.2526,0.1503 0.3373,0.2879 0.0839,0.1383 0.1256,0.2907 0.1256,0.4572 0,0.2152 -0.0692,0.3958 -0.2089,0.5432 -0.139,0.1475 -0.3542,0.2413 -0.6448,0.2816 0.1065,0.0508 0.1869,0.1008 0.242,0.1509 0.1171,0.1073 0.2279,0.242 0.333,0.4029l0.527 0.8248 -0.5044 0 -0.4008 -0.6308c-0.1171,-0.1813 -0.2138,-0.321 -0.29,-0.4169 -0.0755,-0.0967 -0.1432,-0.1644 -0.2032,-0.2025 -0.0599,-0.0388 -0.1206,-0.0657 -0.1827,-0.0812 -0.0459,-0.0091 -0.12,-0.0141 -0.2237,-0.0141l-0.4649 0 0 1.3455 -0.4008 0zm0.4008 -1.6926l0.8622 0c0.1827,0 0.3266,-0.0191 0.4296,-0.0572 0.1037,-0.0381 0.1821,-0.0987 0.2357,-0.182 0.0536,-0.0833 0.0804,-0.1736 0.0804,-0.2716 0,-0.1433 -0.0515,-0.2611 -0.1559,-0.3535 -0.1037,-0.0924 -0.2681,-0.1383 -0.4932,-0.1383l-0.9588 0 0 1.0026z"/>
  <polygon class="fil3" points="57.1167,136.933 57.1167,133.903 59.1614,133.903 59.1614,134.261 57.5182,134.261 57.5182,135.199 58.9399,135.199 58.9399,135.557 57.5182,135.557 57.5182,136.933 "/>
  <path class="fil3" d="M49.8475 141.007l0.3676 -0.0578c0.0205,0.1474 0.0783,0.2603 0.1729,0.3394 0.0938,0.0783 0.2258,0.1178 0.3958,0.1178 0.1707,0 0.2977,-0.0353 0.3803,-0.1044 0.0825,-0.0699 0.1242,-0.1517 0.1242,-0.2449 0,-0.0846 -0.0367,-0.1502 -0.1101,-0.1989 -0.0508,-0.0332 -0.1778,-0.0748 -0.3803,-0.1256 -0.2723,-0.0692 -0.4621,-0.1284 -0.5673,-0.1792 -0.1051,-0.0501 -0.1855,-0.12 -0.2398,-0.2089 -0.0544,-0.0889 -0.0819,-0.1869 -0.0819,-0.2942 0,-0.0981 0.0226,-0.1884 0.0677,-0.2716 0.0445,-0.084 0.1059,-0.1531 0.1828,-0.2082 0.0578,-0.0423 0.1369,-0.079 0.2363,-0.1086 0.1002,-0.0296 0.2075,-0.0445 0.3218,-0.0445 0.1721,0 0.3231,0.0254 0.4536,0.0748 0.1306,0.0494 0.2265,0.1164 0.2886,0.2011 0.0621,0.0854 0.1044,0.1983 0.1277,0.3401l-0.3633 0.0501c-0.017,-0.1129 -0.065,-0.2011 -0.144,-0.2646 -0.079,-0.0635 -0.1912,-0.0953 -0.3358,-0.0953 -0.1708,0 -0.2928,0.0283 -0.3655,0.0847 -0.0734,0.0565 -0.1101,0.1228 -0.1101,0.1983 0,0.0487 0.0156,0.0917 0.0459,0.1305 0.0303,0.0402 0.0776,0.0727 0.1425,0.0995 0.0374,0.0134 0.1468,0.0451 0.3288,0.0945 0.2632,0.0706 0.4466,0.1277 0.5503,0.1729 0.1045,0.0444 0.1863,0.1101 0.2456,0.1954 0.0592,0.0854 0.0889,0.1912 0.0889,0.3182 0,0.1242 -0.0367,0.2406 -0.1087,0.3507 -0.0727,0.1093 -0.1771,0.194 -0.3133,0.254 -0.1361,0.06 -0.2906,0.0896 -0.4628,0.0896 -0.2857,0 -0.503,-0.0593 -0.6526,-0.1778 -0.1496,-0.1185 -0.2449,-0.2942 -0.2858,-0.5271z"/>
  <path class="fil3" d="M51.9741 140.565c0,-0.4064 0.1129,-0.7077 0.3394,-0.9031 0.1884,-0.1623 0.4184,-0.2442 0.69,-0.2442 0.302,0 0.5489,0.0988 0.7401,0.2971 0.1919,0.1975 0.2872,0.4706 0.2872,0.8191 0,0.2829 -0.0424,0.5052 -0.127,0.6668 -0.0847,0.1622 -0.2082,0.2878 -0.3697,0.3774 -0.1623,0.0896 -0.3387,0.1341 -0.5306,0.1341 -0.3069,0 -0.5553,-0.0981 -0.7451,-0.2956 -0.1898,-0.1969 -0.2843,-0.4805 -0.2843,-0.8516zm0.3824 0c0,0.2815 0.0614,0.4917 0.1842,0.6314 0.1227,0.1404 0.2772,0.2103 0.4628,0.2103 0.1849,0 0.3387,-0.0706 0.4614,-0.211 0.1221,-0.1404 0.1835,-0.3549 0.1835,-0.6427 0,-0.2717 -0.0614,-0.4777 -0.1849,-0.6174 -0.1235,-0.1397 -0.2766,-0.2095 -0.46,-0.2095 -0.1856,0 -0.3401,0.0698 -0.4628,0.2088 -0.1228,0.139 -0.1842,0.3493 -0.1842,0.6301z"/>
  <path class="fil3" d="M55.9061 141.662l0 -0.3224c-0.1714,0.2483 -0.4036,0.3718 -0.6971,0.3718 -0.1291,0 -0.2504,-0.0247 -0.3626,-0.0741 -0.1122,-0.0494 -0.1955,-0.1122 -0.2498,-0.187 -0.055,-0.0755 -0.0931,-0.1672 -0.115,-0.2758 -0.0148,-0.0734 -0.0226,-0.1891 -0.0226,-0.3479l0 -1.3596 0.3719 0 0 1.2171c0,0.1947 0.0077,0.3253 0.0225,0.393 0.024,0.0981 0.0734,0.1743 0.1489,0.2307 0.0762,0.0558 0.17,0.0833 0.2815,0.0833 0.1115,0 0.2159,-0.0283 0.314,-0.0854 0.0981,-0.0572 0.1672,-0.1355 0.2074,-0.2335 0.0409,-0.0988 0.0614,-0.242 0.0614,-0.429l0 -1.1762 0.3718 0 0 2.195 -0.3323 0z"/>
  <path class="fil3" d="M56.8177 141.662l0 -2.195 0.3344 0 0 0.3323c0.0854,-0.1552 0.1644,-0.2582 0.2371,-0.3076 0.0719,-0.0494 0.1517,-0.0748 0.2384,-0.0748 0.1256,0 0.2526,0.0403 0.3824,0.12l-0.1284 0.3457c-0.0903,-0.0543 -0.1813,-0.0811 -0.2723,-0.0811 -0.0819,0 -0.1545,0.0247 -0.2194,0.0733 -0.0649,0.0494 -0.1108,0.1172 -0.1383,0.2039 -0.0416,0.132 -0.0621,0.2766 -0.0621,0.434l0 1.1493 -0.3718 0z"/>
  <path class="fil3" d="M59.6639 140.858l0.3654 0.048c-0.0395,0.2518 -0.1418,0.4494 -0.3069,0.5919 -0.1644,0.1425 -0.3669,0.2138 -0.6067,0.2138 -0.2999,0 -0.5419,-0.0981 -0.7239,-0.2942 -0.1828,-0.1962 -0.2745,-0.4777 -0.2745,-0.8446 0,-0.237 0.0395,-0.4445 0.1178,-0.6223 0.079,-0.1778 0.1983,-0.3111 0.3592,-0.4 0.1601,-0.0889 0.3351,-0.1334 0.5235,-0.1334 0.2384,0 0.4339,0.0607 0.5849,0.1814 0.1517,0.1206 0.249,0.2914 0.2921,0.5136l-0.362 0.0557c-0.0346,-0.1474 -0.0952,-0.2582 -0.1827,-0.333 -0.0875,-0.0741 -0.1933,-0.1115 -0.3175,-0.1115 -0.1877,0 -0.3401,0.0671 -0.4572,0.2018 -0.1171,0.1341 -0.1757,0.3465 -0.1757,0.6371 0,0.295 0.0565,0.5095 0.17,0.6435 0.1129,0.1334 0.2604,0.2004 0.4424,0.2004 0.1461,0 0.2674,-0.0452 0.3655,-0.1348 0.0981,-0.0896 0.1602,-0.2272 0.1863,-0.4134z"/>
  <path class="fil3" d="M61.8504 140.955l0.3845 0.0473c-0.0606,0.2251 -0.1728,0.3994 -0.3365,0.5235 -0.1644,0.1235 -0.374,0.1856 -0.6287,0.1856 -0.321,0 -0.5757,-0.0988 -0.7634,-0.2963 -0.1883,-0.1976 -0.2822,-0.4749 -0.2822,-0.8319 0,-0.3697 0.0953,-0.6561 0.2851,-0.8601 0.1905,-0.2039 0.4367,-0.3062 0.7401,-0.3062 0.2935,0 0.5334,0.1002 0.7189,0.2999 0.1863,0.1997 0.2794,0.4812 0.2794,0.8431 0,0.0226 -0.0007,0.0558 -0.0021,0.0995l-1.6369 0c0.0135,0.2413 0.0819,0.4262 0.2047,0.5539 0.1227,0.1284 0.2751,0.1926 0.4586,0.1926 0.1361,0 0.2525,-0.036 0.3492,-0.108 0.0967,-0.0712 0.1729,-0.1855 0.2293,-0.3429zm-1.2213 -0.6018l1.2255 0c-0.0162,-0.1841 -0.0635,-0.3231 -0.1404,-0.4149 -0.1185,-0.1432 -0.2723,-0.2152 -0.4607,-0.2152 -0.1707,0 -0.3147,0.0572 -0.4311,0.1715 -0.1164,0.1143 -0.1806,0.2674 -0.1933,0.4586z"/>
  <path class="fil1" d="M82.9565 130.125l-0.8043 -3.0303 0.4113 0 0.4615 1.9861c0.0494,0.2081 0.0917,0.4148 0.1277,0.6202 0.0776,-0.3239 0.1227,-0.5101 0.1369,-0.5602l0.5764 -2.0461 0.484 0 0.4339 1.5338c0.1087,0.3803 0.187,0.738 0.2357,1.0725 0.0381,-0.1912 0.0889,-0.4114 0.1509,-0.659l0.4749 -1.9473 0.4036 0 -0.8312 3.0303 -0.3866 0 -0.6385 -2.3086c-0.0537,-0.1933 -0.0854,-0.3118 -0.0953,-0.3556 -0.0317,0.139 -0.0614,0.2576 -0.0889,0.3556l-0.6427 2.3086 -0.4093 0z"/>
  <path class="fil1" d="M86.4292 130.125l0 -3.0303 1.3434 0c0.2702,0 0.4755,0.0275 0.6159,0.0818 0.1404,0.0543 0.2526,0.1503 0.3373,0.2879 0.0839,0.1383 0.1256,0.2907 0.1256,0.4572 0,0.2152 -0.0692,0.3958 -0.2089,0.5432 -0.139,0.1475 -0.3542,0.2413 -0.6448,0.2816 0.1065,0.0508 0.1869,0.1008 0.242,0.1509 0.1171,0.1073 0.2279,0.242 0.333,0.4029l0.527 0.8248 -0.5044 0 -0.4008 -0.6308c-0.1171,-0.1813 -0.2138,-0.321 -0.29,-0.4169 -0.0755,-0.0967 -0.1432,-0.1644 -0.2032,-0.2025 -0.0599,-0.0388 -0.1206,-0.0657 -0.1827,-0.0812 -0.0459,-0.0091 -0.12,-0.0141 -0.2237,-0.0141l-0.4649 0 0 1.3455 -0.4008 0zm0.4008 -1.6926l0.8622 0c0.1827,0 0.3266,-0.0191 0.4296,-0.0572 0.1037,-0.0381 0.1821,-0.0987 0.2357,-0.182 0.0536,-0.0833 0.0804,-0.1736 0.0804,-0.2716 0,-0.1433 -0.0515,-0.2611 -0.1559,-0.3535 -0.1037,-0.0924 -0.2681,-0.1383 -0.4932,-0.1383l-0.9588 0 0 1.0026z"/>
  <polygon class="fil1" points="89.5004,130.125 89.5004,127.095 91.5451,127.095 91.5451,127.453 89.9019,127.453 89.9019,128.391 91.3236,128.391 91.3236,128.749 89.9019,128.749 89.9019,130.125 "/>
  <path class="fil1" d="M82.2312 134.199l0.3676 -0.0578c0.0205,0.1474 0.0783,0.2603 0.1729,0.3394 0.0938,0.0783 0.2258,0.1178 0.3958,0.1178 0.1707,0 0.2977,-0.0353 0.3803,-0.1044 0.0825,-0.0699 0.1242,-0.1517 0.1242,-0.2449 0,-0.0846 -0.0367,-0.1502 -0.1101,-0.1989 -0.0508,-0.0332 -0.1778,-0.0748 -0.3803,-0.1256 -0.2723,-0.0692 -0.4621,-0.1284 -0.5673,-0.1792 -0.1051,-0.0501 -0.1855,-0.12 -0.2398,-0.2089 -0.0544,-0.0889 -0.0819,-0.1869 -0.0819,-0.2942 0,-0.0981 0.0226,-0.1884 0.0677,-0.2716 0.0445,-0.084 0.1059,-0.1531 0.1828,-0.2082 0.0578,-0.0423 0.1369,-0.079 0.2363,-0.1086 0.1002,-0.0296 0.2075,-0.0445 0.3218,-0.0445 0.1721,0 0.3231,0.0254 0.4536,0.0748 0.1306,0.0494 0.2265,0.1164 0.2886,0.2011 0.0621,0.0854 0.1044,0.1983 0.1277,0.3401l-0.3633 0.0501c-0.017,-0.1129 -0.065,-0.2011 -0.144,-0.2646 -0.079,-0.0635 -0.1912,-0.0953 -0.3358,-0.0953 -0.1708,0 -0.2928,0.0283 -0.3655,0.0847 -0.0734,0.0565 -0.1101,0.1228 -0.1101,0.1983 0,0.0487 0.0156,0.0917 0.0459,0.1305 0.0303,0.0402 0.0776,0.0727 0.1425,0.0995 0.0374,0.0134 0.1468,0.0451 0.3288,0.0945 0.2632,0.0706 0.4466,0.1277 0.5503,0.1729 0.1045,0.0444 0.1863,0.1101 0.2456,0.1954 0.0592,0.0854 0.0889,0.1912 0.0889,0.3182 0,0.1242 -0.0367,0.2406 -0.1087,0.3507 -0.0727,0.1093 -0.1771,0.194 -0.3133,0.254 -0.1361,0.06 -0.2906,0.0896 -0.4628,0.0896 -0.2857,0 -0.503,-0.0593 -0.6526,-0.1778 -0.1496,-0.1185 -0.2449,-0.2942 -0.2858,-0.5271z"/>
  <path class="fil1" d="M84.4982 132.252l0 -0.4282 0.3725 0 0 0.4282 -0.3725 0zm0 2.6021l0 -2.195 0.3725 0 0 2.195 -0.3725 0z"/>
  <path class="fil1" d="M85.4373 134.854l0 -2.195 0.3344 0 0 0.3119c0.1616,-0.2413 0.3944,-0.362 0.6985,-0.362 0.1327,0 0.254,0.024 0.3648,0.0713 0.1115,0.048 0.194,0.1101 0.2491,0.1877 0.0557,0.0769 0.0938,0.1686 0.1164,0.2744 0.0134,0.0692 0.0204,0.1898 0.0204,0.362l0 1.3497 -0.3725 0 0 -1.3356c0,-0.151 -0.0141,-0.2646 -0.043,-0.3401 -0.029,-0.0748 -0.0805,-0.1347 -0.1539,-0.1792 -0.074,-0.0451 -0.1601,-0.0677 -0.2596,-0.0677 -0.1587,0 -0.2949,0.0508 -0.4106,0.151 -0.115,0.1009 -0.1722,0.2914 -0.1722,0.5729l0 1.1987 -0.3718 0z"/>
  <polygon class="fil1" points="87.7931,134.854 87.7931,131.824 88.1656,131.824 88.1656,133.552 89.0462,132.659 89.5274,132.659 88.6885,133.474 89.6127,134.854 89.1534,134.854 88.4281,133.732 88.1656,133.985 88.1656,134.854 "/>
  <rect class="fil4 str1" x="25.2652" y="48.212" width="40.742" height="120.346" rx="5.9546" ry="5.9546"/>
  <rect class="fil4 str1" x="91.608" y="48.212" width="87.7782" height="120.346" rx="5.9546" ry="5.9546"/>
  <path class="fil3" d="M31.9214 57.342l0.7564 -0.0664c0.0352,0.3034 0.1185,0.5518 0.2497,0.7465 0.1313,0.1948 0.3345,0.3514 0.6096,0.4713 0.2752,0.12 0.5856,0.1792 0.93,0.1792 0.3062,0 0.5757,-0.0451 0.8099,-0.1354 0.2343,-0.0917 0.4093,-0.2159 0.5236,-0.374 0.1143,-0.1594 0.1721,-0.3316 0.1721,-0.5193 0,-0.1905 -0.055,-0.3556 -0.1665,-0.4981 -0.1101,-0.1425 -0.2921,-0.261 -0.5447,-0.357 -0.1637,-0.0635 -0.5221,-0.1623 -1.0795,-0.2963 -0.556,-0.1341 -0.9468,-0.2597 -1.1698,-0.3782 -0.2893,-0.151 -0.5052,-0.3401 -0.6477,-0.5645 -0.1411,-0.2243 -0.2117,-0.4755 -0.2117,-0.7549 0,-0.3048 0.0861,-0.5913 0.2597,-0.8566 0.1735,-0.2667 0.4275,-0.4684 0.7606,-0.6067 0.3344,-0.1369 0.7041,-0.2061 1.1119,-0.2061 0.4502,0 0.8453,0.072 1.1896,0.2174 0.3429,0.1439 0.6068,0.357 0.7916,0.6378 0.1835,0.2808 0.2837,0.5997 0.2978,0.9553l-0.7691 0.0579c-0.0423,-0.3825 -0.182,-0.6731 -0.4205,-0.8679 -0.2385,-0.1961 -0.5898,-0.2935 -1.0555,-0.2935 -0.4854,0 -0.8382,0.0889 -1.0612,0.2667 -0.2215,0.1778 -0.333,0.3923 -0.333,0.6421 0,0.2187 0.079,0.3979 0.2357,0.5376 0.1552,0.1411 0.5574,0.2851 1.2093,0.4318 0.6519,0.1482 1.0992,0.2766 1.342,0.3867 0.3527,0.1636 0.6138,0.3697 0.7817,0.618 0.1679,0.2498 0.2512,0.5377 0.2512,0.8622 0,0.3232 -0.0917,0.6266 -0.2766,0.9116 -0.1848,0.285 -0.4501,0.5066 -0.7959,0.666 -0.3457,0.1581 -0.7351,0.2371 -1.1669,0.2371 -0.549,0 -1.009,-0.079 -1.3787,-0.2399 -0.3711,-0.1594 -0.6618,-0.3993 -0.8735,-0.7211 -0.2102,-0.3203 -0.3217,-0.6844 -0.3316,-1.0893z"/>
  <path class="fil3" d="M38.5565 59.2893l-1.3434 -4.39 0.7691 0 0.6985 2.5344 0.2596 0.9426c0.0113,-0.048 0.0875,-0.3499 0.2272,-0.9059l0.6985 -2.5711 0.7648 0 0.6576 2.5457 0.2201 0.8396 0.2512 -0.8481 0.7521 -2.5372 0.7239 0 -1.373 4.39 -0.7719 0 -0.6985 -2.6289 -0.1707 -0.7493 -0.8876 3.3782 -0.7775 0z"/>
  <path class="fil3" d="M46.7255 57.6806l0.7309 0.096c-0.079,0.5038 -0.2836,0.8989 -0.6138,1.1839 -0.3288,0.2851 -0.7338,0.4276 -1.2136,0.4276 -0.5997,0 -1.0837,-0.1962 -1.4478,-0.5885 -0.3655,-0.3922 -0.5489,-0.9553 -0.5489,-1.6891 0,-0.4741 0.079,-0.889 0.2357,-1.2446 0.158,-0.3556 0.3965,-0.6223 0.7182,-0.8001 0.3203,-0.1778 0.6703,-0.2667 1.0471,-0.2667 0.4769,0 0.8678,0.1214 1.1698,0.3627 0.3034,0.2413 0.4981,0.5828 0.5842,1.0273l-0.7239 0.1115c-0.0692,-0.295 -0.1905,-0.5165 -0.3655,-0.6661 -0.175,-0.1482 -0.3866,-0.2229 -0.635,-0.2229 -0.3754,0 -0.6802,0.134 -0.9144,0.4035 -0.2343,0.2681 -0.3514,0.6929 -0.3514,1.2743 0,0.5898 0.1129,1.0188 0.3401,1.2869 0.2258,0.2667 0.5207,0.4008 0.8848,0.4008 0.2921,0 0.5348,-0.0903 0.7309,-0.2696 0.1962,-0.1792 0.3204,-0.4543 0.3726,-0.8269z"/>
  <path class="fil3" d="M47.8163 57.0936c0,-0.8128 0.2258,-1.4153 0.6788,-1.8062 0.3767,-0.3246 0.8368,-0.4883 1.38,-0.4883 0.604,0 1.0979,0.1976 1.4803,0.5941 0.3838,0.3951 0.5743,0.9412 0.5743,1.6383 0,0.5659 -0.0846,1.0104 -0.254,1.3335 -0.1693,0.3246 -0.4163,0.5758 -0.7394,0.755 -0.3246,0.1792 -0.6773,0.2681 -1.0612,0.2681 -0.6138,0 -1.1105,-0.1962 -1.4901,-0.5913 -0.3796,-0.3937 -0.5687,-0.961 -0.5687,-1.7032zm0.7648 0c0,0.563 0.1228,0.9836 0.3683,1.263 0.2456,0.2808 0.5546,0.4205 0.9257,0.4205 0.3697,0 0.6774,-0.1411 0.9229,-0.422 0.2441,-0.2808 0.3669,-0.7098 0.3669,-1.2855 0,-0.5433 -0.1228,-0.9553 -0.3697,-1.2347 -0.247,-0.2794 -0.5532,-0.4191 -0.9201,-0.4191 -0.3711,0 -0.6801,0.1397 -0.9257,0.4177 -0.2455,0.278 -0.3683,0.6985 -0.3683,1.2601z"/>
  <path class="fil3" d="M52.7947 59.2893l0 -4.39 0.6689 0 0 0.6647c0.1707,-0.3105 0.3288,-0.5165 0.4741,-0.6153 0.144,-0.0988 0.3034,-0.1496 0.477,-0.1496 0.2512,0 0.5052,0.0805 0.7648,0.2399l-0.2568 0.6915c-0.1806,-0.1087 -0.3627,-0.1623 -0.5447,-0.1623 -0.1637,0 -0.309,0.0494 -0.4388,0.1467 -0.1299,0.0988 -0.2216,0.2343 -0.2766,0.4079 -0.0833,0.2638 -0.1242,0.5531 -0.1242,0.8678l0 2.2987 -0.7437 0z"/>
  <path class="fil3" d="M58.6269 57.8754l0.769 0.0945c-0.1213,0.4502 -0.3457,0.7987 -0.6731,1.0471 -0.3288,0.2469 -0.7479,0.3711 -1.2573,0.3711 -0.642,0 -1.1515,-0.1976 -1.5268,-0.5927 -0.3768,-0.3951 -0.5645,-0.9497 -0.5645,-1.6637 0,-0.7394 0.1905,-1.3123 0.5701,-1.7201 0.381,-0.4079 0.8735,-0.6125 1.4803,-0.6125 0.587,0 1.0668,0.2004 1.4379,0.5998 0.3726,0.3993 0.5588,0.9623 0.5588,1.6862 0,0.0452 -0.0014,0.1115 -0.0042,0.199l-3.2738 0c0.0268,0.4826 0.1637,0.8523 0.4092,1.1077 0.2456,0.2569 0.5504,0.3853 0.9173,0.3853 0.2723,0 0.5051,-0.072 0.6985,-0.2159 0.1933,-0.1426 0.3457,-0.3712 0.4586,-0.6858zm-2.4427 -1.2037l2.4511 0c-0.0324,-0.3683 -0.127,-0.6463 -0.2808,-0.8298 -0.237,-0.2864 -0.5447,-0.4303 -0.9214,-0.4303 -0.3415,0 -0.6294,0.1143 -0.8622,0.3429 -0.2329,0.2286 -0.3613,0.5348 -0.3867,0.9172z"/>
  <polygon class="fil1" points="126.165,59.2893 126.165,53.2286 126.988,53.2286 130.171,57.9868 130.171,53.2286 130.94,53.2286 130.94,59.2893 130.118,59.2893 126.934,54.5268 126.934,59.2893 "/>
  <polygon class="fil1" points="132.425,59.2893 132.425,53.2286 133.226,53.2286 133.226,59.2893 "/>
  <path class="fil1" d="M138.964 57.1642l0.8029 0.2032c-0.1679,0.6575 -0.4713,1.1599 -0.9073,1.507 -0.4375,0.3458 -0.9709,0.5179 -1.603,0.5179 -0.6534,0 -1.184,-0.1326 -1.5932,-0.3979 -0.4092,-0.2667 -0.7211,-0.652 -0.9342,-1.1557 -0.213,-0.5052 -0.3203,-1.0471 -0.3203,-1.6256 0,-0.6308 0.12,-1.1811 0.3613,-1.651 0.2413,-0.4699 0.5842,-0.827 1.0301,-1.0711 0.4445,-0.2441 0.9341,-0.3655 1.469,-0.3655 0.6067,0 1.1162,0.1539 1.5296,0.4629 0.4135,0.309 0.7013,0.7422 0.8636,1.3024l-0.7888 0.1863c-0.1411,-0.4417 -0.3443,-0.762 -0.6124,-0.9638 -0.2667,-0.2018 -0.6026,-0.302 -1.009,-0.302 -0.4656,0 -0.8537,0.1115 -1.167,0.3345 -0.3132,0.2243 -0.5334,0.5235 -0.659,0.9003 -0.127,0.3753 -0.1905,0.7634 -0.1905,1.1627 0,0.5165 0.0748,0.9652 0.2244,1.3505 0.151,0.3838 0.3838,0.6717 0.7013,0.8622 0.3175,0.1905 0.6604,0.285 1.0301,0.285 0.4488,0 0.8284,-0.1298 1.1402,-0.388 0.3119,-0.2597 0.5221,-0.6449 0.6322,-1.1543z"/>
  <g>
   <path class="fil3" d="M82.8009 88.9283l0 -0.7056 0.6119 0 0 0.7056 -0.6119 0zm-1.2238 0l0 -0.7056 0.6119 0 0 0.7056 -0.6119 0zm-1.2238 0l0 -0.7056 0.6119 0 0 0.7056 -0.6119 0zm-1.2238 0l0 -0.7056 0.6119 0 0 0.7056 -0.6119 0zm-1.2238 0l0 -0.7056 0.6119 0 0 0.7056 -0.6119 0zm-1.2238 0l0 -0.7056 0.6119 0 0 0.7056 -0.6119 0zm-1.2238 0l0 -0.7056 0.6119 0 0 0.7056 -0.6119 0zm-1.2238 0l0 -0.7056 0.6119 0 0 0.7056 -0.6119 0zm-1.2238 0l0 -0.7056 0.6119 0 0 0.7056 -0.6119 0zm-1.2238 0l0 -0.7056 0.6119 0 0 0.7056 -0.6119 0zm-1.2238 0l0 -0.7056 0.6119 0 0 0.7056 -0.6119 0zm-1.2238 0l0 -0.7056 0.6119 0 0 0.7056 -0.6119 0zm-1.2238 0l0 -0.7056 0.6119 0 0 0.7056 -0.6119 0zm-1.2238 0l0 -0.7056 0.6119 0 0 0.7056 -0.6119 0zm-1.2238 0l0 -0.7056 0.6119 0 0 0.7056 -0.6119 0zm-1.2238 0l0 -0.7056 0.6119 0 0 0.7056 -0.6119 0zm-1.0303 -0.7056l0.4184 0 0 0.7056 -0.4184 0 0 -0.7056zm0.2907 2.1972l-3.353 -1.8444 3.353 -1.8444 0 3.6888z"/>
  </g>
  <g>
   <path class="fil3" d="M82.8009 71.1483l0 -0.7056 0.6119 0 0 0.7056 -0.6119 0zm-1.2238 0l0 -0.7056 0.6119 0 0 0.7056 -0.6119 0zm-1.2238 0l0 -0.7056 0.6119 0 0 0.7056 -0.6119 0zm-1.2238 0l0 -0.7056 0.6119 0 0 0.7056 -0.6119 0zm-1.2238 0l0 -0.7056 0.6119 0 0 0.7056 -0.6119 0zm-1.2238 0l0 -0.7056 0.6119 0 0 0.7056 -0.6119 0zm-1.2238 0l0 -0.7056 0.6119 0 0 0.7056 -0.6119 0zm-1.2238 0l0 -0.7056 0.6119 0 0 0.7056 -0.6119 0zm-1.2238 0l0 -0.7056 0.6119 0 0 0.7056 -0.6119 0zm-1.2238 0l0 -0.7056 0.6119 0 0 0.7056 -0.6119 0zm-1.2238 0l0 -0.7056 0.6119 0 0 0.7056 -0.6119 0zm-1.2238 0l0 -0.7056 0.6119 0 0 0.7056 -0.6119 0zm-1.2238 0l0 -0.7056 0.6119 0 0 0.7056 -0.6119 0zm-1.2238 0l0 -0.7056 0.6119 0 0 0.7056 -0.6119 0zm-1.2238 0l0 -0.7056 0.6119 0 0 0.7056 -0.6119 0zm-1.2238 0l0 -0.7056 0.6119 0 0 0.7056 -0.6119 0zm-1.0303 -0.7056l0.4184 0 0 0.7056 -0.4184 0 0 -0.7056zm0.2907 2.1972l-3.353 -1.8444 3.353 -1.8444 0 3.6888z"/>
  </g>
  <g>
   <path class="fil3" d="M61.1334 136.807l0 0.7056 -0.6119 0 0 -0.7056 0.6119 0zm1.2238 0l0 0.7056 -0.6119 0 0 -0.7056 0.6119 0zm1.2238 0l0 0.7056 -0.6119 0 0 -0.7056 0.6119 0zm1.2238 0l0 0.7056 -0.6119 0 0 -0.7056 0.6119 0zm1.2238 0l0 0.7056 -0.6119 0 0 -0.7056 0.6119 0zm1.2238 0l0 0.7056 -0.6119 0 0 -0.7056 0.6119 0zm1.2238 0l0 0.7056 -0.6119 0 0 -0.7056 0.6119 0zm1.2238 0l0 0.7056 -0.6119 0 0 -0.7056 0.6119 0zm1.2238 0l0 0.7056 -0.6119 0 0 -0.7056 0.6119 0zm1.2238 0l0 0.7056 -0.6119 0 0 -0.7056 0.6119 0zm1.2238 0l0 0.7056 -0.6119 0 0 -0.7056 0.6119 0zm1.2238 0l0 0.7056 -0.6119 0 0 -0.7056 0.6119 0zm1.2238 0l0 0.7056 -0.6119 0 0 -0.7056 0.6119 0zm1.2238 0l0 0.7056 -0.6119 0 0 -0.7056 0.6119 0zm1.2238 0l0 0.7056 -0.6119 0 0 -0.7056 0.6119 0zm1.2238 0l0 0.7056 -0.6119 0 0 -0.7056 0.6119 0zm1.0303 0.7056l-0.4184 0 0 -0.7056 0.4184 0 0 0.7056zm-0.2907 -2.1972l3.353 1.8444 -3.353 1.8444 0 -3.6888z"/>
  </g>
 </g>
</svg>
